<?xml version="1.0" encoding="UTF-8" standalone="no"?>
<svg
   xmlns:dc="http://purl.org/dc/elements/1.1/"
   xmlns:cc="http://creativecommons.org/ns#"
   xmlns:rdf="http://www.w3.org/1999/02/22-rdf-syntax-ns#"
   xmlns:svg="http://www.w3.org/2000/svg"
   xmlns="http://www.w3.org/2000/svg"
   xmlns:sodipodi="http://sodipodi.sourceforge.net/DTD/sodipodi-0.dtd"
   xmlns:inkscape="http://www.inkscape.org/namespaces/inkscape"
   width="126.0984mm"
   height="74.42392mm"
   viewBox="0 0 126.0984 74.42392"
   version="1.1"
   id="svg846"
   inkscape:version="1.0.2 (1.0.2+r75+1)"
   sodipodi:docname="essenceweb-logo-blackTEXT.svg">
  <defs
     id="defs840" />
  <sodipodi:namedview
     id="base"
     pagecolor="#ffffff"
     bordercolor="#666666"
     borderopacity="1.0"
     inkscape:pageopacity="0.0"
     inkscape:pageshadow="2"
     inkscape:zoom="0.98994949"
     inkscape:cx="188.63589"
     inkscape:cy="-31.730802"
     inkscape:document-units="mm"
     inkscape:current-layer="layer1"
     inkscape:document-rotation="0"
     showgrid="false"
     fit-margin-top="0"
     fit-margin-left="0"
     fit-margin-right="0"
     fit-margin-bottom="0"
     inkscape:window-width="1514"
     inkscape:window-height="1016"
     inkscape:window-x="335"
     inkscape:window-y="27"
     inkscape:window-maximized="0" />
  <metadata
     id="metadata843">
    <rdf:RDF>
      <cc:Work
         rdf:about="">
        <dc:format>image/svg+xml</dc:format>
        <dc:type
           rdf:resource="http://purl.org/dc/dcmitype/StillImage" />
        <dc:title></dc:title>
      </cc:Work>
    </rdf:RDF>
  </metadata>
  <g
     inkscape:label="Layer 1"
     inkscape:groupmode="layer"
     id="layer1"
     transform="translate(-23.840592,-77.692802)">
    <path
       id="path913"
       style="fill:#1a1a1a;fill-opacity:1;stroke:none;stroke-width:0.877381px;stroke-linecap:butt;stroke-linejoin:miter;stroke-opacity:1"
       d="m 113.74274,152.11672 -2.08911,-49.82884 -55.315263,-0.18637 -7.747482,-24.127838 -24.750293,-0.28087 7.429261,29.878858 18.091588,-3.05077 0.909431,47.14282 10.491183,0.0748 a 21.380599,21.212696 2.5705521 0 1 0.06897,-0.352 21.380599,21.212696 2.5705521 0 1 0.07418,-0.35518 21.380599,21.212696 2.5705521 0 1 0.08135,-0.35316 21.380599,21.212696 2.5705521 0 1 0.08785,-0.35115 21.380599,21.212696 2.5705521 0 1 0.09305,-0.34919 21.380599,21.212696 2.5705521 0 1 0.09827,-0.349 21.380599,21.212696 2.5705521 0 1 0.104774,-0.34692 21.380599,21.212696 2.5705521 0 1 0.111274,-0.34489 21.380599,21.212696 2.5705521 0 1 0.116488,-0.34302 21.380599,21.212696 2.5705521 0 1 0.12364,-0.34099 21.380599,21.212696 2.5705521 0 1 0.128203,-0.33904 21.380599,21.212696 2.5705521 0 1 0.135353,-0.33528 21.380599,21.212696 2.5705521 0 1 0.140566,-0.33506 21.380599,21.212696 2.5705521 0 1 0.145115,-0.33143 21.380599,21.212696 2.5705521 0 1 0.152274,-0.32941 21.380599,21.212696 2.5705521 0 1 0.156836,-0.32571 21.380599,21.212696 2.5705521 0 1 0.162034,-0.32381 21.380599,21.212696 2.5705521 0 1 0.16855,-0.32174 21.380599,21.212696 2.5705521 0 1 0.173749,-0.31815 21.380599,21.212696 2.5705521 0 1 0.180256,-0.31438 21.380599,21.212696 2.5705521 0 1 0.183511,-0.31249 21.380599,21.212696 2.5705521 0 1 0.190676,-0.30878 21.380599,21.212696 2.5705521 0 1 0.195875,-0.30689 21.380599,21.212696 2.5705521 0 1 0.200431,-0.3015 21.380599,21.212696 2.5705521 0 1 0.205636,-0.29954 21.380599,21.212696 2.5705521 0 1 0.2102,-0.29414 21.380599,21.212696 2.5705521 0 1 0.21735,-0.29213 21.380599,21.212696 2.5705521 0 1 0.220604,-0.28854 21.380599,21.212696 2.5705521 0 1 0.22516,-0.2832 21.380599,21.212696 2.5705521 0 1 0.230365,-0.28126 21.380599,21.212696 2.5705521 0 1 0.235573,-0.27593 21.380599,21.212696 2.5705521 0 1 0.240127,-0.27226 21.380599,21.212696 2.5705521 0 1 0.245334,-0.26858 21.380599,21.212696 2.5705521 0 1 0.25054,-0.26323 21.380599,21.212696 2.5705521 0 1 0.253794,-0.25965 21.380599,21.212696 2.5705521 0 1 0.258349,-0.256 21.380599,21.212696 2.5705521 0 1 0.261603,-0.25067 21.380599,21.212696 2.5705521 0 1 0.26811,-0.24696 21.380599,21.212696 2.5705521 0 1 0.270063,-0.24176 21.380599,21.212696 2.5705521 0 1 0.276571,-0.23804 21.380599,21.212696 2.5705521 0 1 0.279824,-0.23277 21.380599,21.212696 2.5705521 0 1 0.283078,-0.22744 21.380599,21.212696 2.5705521 0 1 0.28764,-0.22211 21.380599,21.212696 2.5705521 0 1 0.29088,-0.21852 21.380599,21.212696 2.5705521 0 1 0.29414,-0.21325 21.380599,21.212696 2.5705521 0 1 0.29739,-0.20792 21.380599,21.212696 2.5705521 0 1 0.3026,-0.20427 21.380599,21.212696 2.5705521 0 1 0.30586,-0.19724 21.380599,21.212696 2.5705521 0 1 0.30846,-0.19197 21.380599,21.212696 2.5705521 0 1 0.31236,-0.1884 21.380599,21.212696 2.5705521 0 1 0.31496,-0.18136 21.380599,21.212696 2.5705521 0 1 0.31822,-0.17785 21.380599,21.212696 2.5705521 0 1 0.32147,-0.17083 21.380599,21.212696 2.5705521 0 1 0.32278,-0.16561 21.380599,21.212696 2.5705521 0 1 0.32797,-0.16022 21.380599,21.212696 2.5705521 0 1 0.32929,-0.15501 21.380599,21.212696 2.5705521 0 1 0.33254,-0.14974 21.380599,21.212696 2.5705521 0 1 0.33383,-0.14277 21.380599,21.212696 2.5705521 0 1 0.33904,-0.13744 21.380599,21.212696 2.5705521 0 1 0.3384,-0.1323 21.380599,21.212696 2.5705521 0 1 0.34164,-0.12702 21.380599,21.212696 2.5705521 0 1 0.3436,-0.12007 21.380599,21.212696 2.5705521 0 1 0.34685,-0.11486 21.380599,21.212696 2.5705521 0 1 0.34815,-0.10958 21.380599,21.212696 2.5705521 0 1 0.34946,-0.10269 21.380599,21.212696 2.5705521 0 1 0.35271,-0.0957 21.380599,21.212696 2.5705521 0 1 0.35205,-0.0923 21.380599,21.212696 2.5705521 0 1 0.35531,-0.0853 21.380599,21.212696 2.5705521 0 1 0.35531,-0.0784 21.380599,21.212696 2.5705521 0 1 0.35857,-0.0731 21.380599,21.212696 2.5705521 0 1 0.35792,-0.0663 21.380599,21.212696 2.5705521 0 1 0.35986,-0.0612 21.380599,21.212696 2.5705521 0 1 0.36117,-0.054 21.380599,21.212696 2.5705521 0 1 0.36051,-0.0488 21.380599,21.212696 2.5705521 0 1 0.36378,-0.0423 21.380599,21.212696 2.5705521 0 1 0.36182,-0.0371 21.380599,21.212696 2.5705521 0 1 0.36507,-0.0299 21.380599,21.212696 2.5705521 0 1 0.36312,-0.0247 21.380599,21.212696 2.5705521 0 1 0.36442,-0.0163 21.380599,21.212696 2.5705521 0 1 0.36442,-0.013 21.380599,21.212696 2.5705521 0 1 0.36572,-0.006 21.380599,21.212696 2.5705521 0 1 0.36508,7.8e-4 21.380599,21.212696 2.5705521 0 1 0.36507,0.008 21.380599,21.212696 2.5705521 0 1 0.36507,0.0124 21.380599,21.212696 2.5705521 0 1 0.013,5.9e-4 21.380599,21.212696 2.5705521 0 1 0.36312,0.0202 21.380599,21.212696 2.5705521 0 1 0.36442,0.0247 21.380599,21.212696 2.5705521 0 1 0.36378,0.0319 21.380599,21.212696 2.5705521 0 1 0.36376,0.0384 21.380599,21.212696 2.5705521 0 1 0.36182,0.0436 21.380599,21.212696 2.5705521 0 1 0.36118,0.0508 21.380599,21.212696 2.5705521 0 1 0.36116,0.0553 21.380599,21.212696 2.5705521 0 1 0.35922,0.0625 21.380599,21.212696 2.5705521 0 1 0.35856,0.0693 21.380599,21.212696 2.5705521 0 1 0.35661,0.0744 21.380599,21.212696 2.5705521 0 1 0.35467,0.0795 21.380599,21.212696 2.5705521 0 1 0.35465,0.0879 21.380599,21.212696 2.5705521 0 1 0.35271,0.0913 21.380599,21.212696 2.5705521 0 1 0.35207,0.0998 21.380599,21.212696 2.5705521 0 1 0.34879,0.10315 21.380599,21.212696 2.5705521 0 1 0.34816,0.11173 21.380599,21.212696 2.5705521 0 1 0.34489,0.11499 21.380599,21.212696 2.5705521 0 1 0.34426,0.12358 21.380599,21.212696 2.5705521 0 1 0.34099,0.12683 21.380599,21.212696 2.5705521 0 1 0.33904,0.1336 21.380599,21.212696 2.5705521 0 1 0.33709,0.14037 21.380599,21.212696 2.5705521 0 1 0.33514,0.14368 21.380599,21.212696 2.5705521 0 1 0.33254,0.15215 21.380599,21.212696 2.5705521 0 1 0.32928,0.1554 21.380599,21.212696 2.5705521 0 1 0.32537,0.1621 21.380599,21.212696 2.5705521 0 1 0.32343,0.16718 21.380599,21.212696 2.5705521 0 1 0.32147,0.17225 21.380599,21.212696 2.5705521 0 1 0.31822,0.17896 21.380599,21.212696 2.5705521 0 1 0.31431,0.1839 21.380599,21.212696 2.5705521 0 1 0.31237,0.18898 21.380599,21.212696 2.5705521 0 1 0.30715,0.19393 21.380599,21.212696 2.5705521 0 1 0.3052,0.19893 21.380599,21.212696 2.5705521 0 1 0.3013,0.20395 21.380599,21.212696 2.5705521 0 1 0.2974,0.20889 21.380599,21.212696 2.5705521 0 1 0.29414,0.2156 21.380599,21.212696 2.5705521 0 1 0.29023,0.21884 21.380599,21.212696 2.5705521 0 1 0.28699,0.22386 21.380599,21.212696 2.5705521 0 1 0.28308,0.23057 21.380599,21.212696 2.5705521 0 1 0.27916,0.23381 21.380599,21.212696 2.5705521 0 1 0.27397,0.23701 21.380599,21.212696 2.5705521 0 1 0.27006,0.2437 21.380599,21.212696 2.5705521 0 1 0.26681,0.24865 21.380599,21.212696 2.5705521 0 1 0.2616,0.25191 21.380599,21.212696 2.5705521 0 1 0.2577,0.25686 21.380599,21.212696 2.5705521 0 1 0.25445,0.26016 21.380599,21.212696 2.5705521 0 1 0.24728,0.26492 21.380599,21.212696 2.5705521 0 1 0.24534,0.27007 21.380599,21.212696 2.5705521 0 1 0.24013,0.27325 21.380599,21.212696 2.5705521 0 1 0.23427,0.27644 21.380599,21.212696 2.5705521 0 1 0.22907,0.28307 21.380599,21.212696 2.5705521 0 1 0.22581,0.28458 21.380599,21.212696 2.5705521 0 1 0.21865,0.28945 21.380599,21.212696 2.5705521 0 1 0.21475,0.29272 21.380599,21.212696 2.5705521 0 1 0.21149,0.29596 21.380599,21.212696 2.5705521 0 1 0.20434,0.29902 21.380599,21.212696 2.5705521 0 1 0.19913,0.30397 21.380599,21.212696 2.5705521 0 1 0.19588,0.30553 21.380599,21.212696 2.5705521 0 1 0.188709,0.31034 21.380599,21.212696 2.5705521 0 1 0.18286,0.3136 21.380599,21.212696 2.5705521 0 1 0.17962,0.31509 21.380599,21.212696 2.5705521 0 1 0.17244,0.31822 21.380599,21.212696 2.5705521 0 1 0.16725,0.3231 21.380599,21.212696 2.5705521 0 1 0.16204,0.32459 21.380599,21.212696 2.5705521 0 1 0.15552,0.32603 21.380599,21.212696 2.5705521 0 1 0.15163,0.33098 21.380599,21.212696 2.5705521 0 1 0.14447,0.3324 21.380599,21.212696 2.5705521 0 1 0.13926,0.3339 21.380599,21.212696 2.5705521 0 1 0.1321,0.33696 21.380599,21.212696 2.5705521 0 1 0.12885,0.34028 21.380599,21.212696 2.5705521 0 1 0.12039,0.34164 21.380599,21.212696 2.5705521 0 1 0.11649,0.34315 21.380599,21.212696 2.5705521 0 1 0.10997,0.34457 21.380599,21.212696 2.5705521 0 1 0.10478,0.34777 21.380599,21.212696 2.5705521 0 1 0.0976,0.34919 21.380599,21.212696 2.5705521 0 1 0.0924,0.35063 21.380599,21.212696 2.5705521 0 1 0.0853,0.35036 21.380599,21.212696 2.5705521 0 1 0.08,0.35355 21.380599,21.212696 2.5705521 0 1 0.0735,0.35493 21.380599,21.212696 2.5705521 0 1 0.0677,0.35641 21.380599,21.212696 2.5705521 0 1 0.0325,0.20226 z"
       inkscape:export-xdpi="96"
       inkscape:export-ydpi="96"
       inkscape:export-filename="/home/pexim/Documents/WEBSITES/essenceweb/path9113.png" />
    <text
       xml:space="preserve"
       style="font-style:normal;font-weight:normal;font-size:15.0428px;line-height:1.25;font-family:sans-serif;fill:#1a1a1a;fill-opacity:1;stroke:none;stroke-width:0.376072;"
       x="61.698082"
       y="92.780159"
       id="text833"
       inkscape:export-xdpi="96"
       inkscape:export-ydpi="96"><tspan
         sodipodi:role="line"
         id="tspan831"
         x="61.698082"
         y="92.780159"
         style="font-style:normal;font-variant:normal;font-weight:normal;font-stretch:normal;font-family:Rosario;-inkscape-font-specification:Rosario;fill:#1a1a1a;stroke-width:0.376072;">EssenceWEB®</tspan></text>
  </g>
</svg>
