<svg id="Layer_1" enable-background="new 0 0 512 512" height="512" viewBox="0 0 512 512" width="512" xmlns="http://www.w3.org/2000/svg"><path d="m454 376h-57c-11.028 0-20 8.972-20 20v56c0 11.046-8.954 20-20 20s-20-8.954-20-20v-56c0-33.084 26.916-60 60-60h57c11.046 0 20 8.954 20 20s-8.954 20-20 20zm-13.858 35.857c-7.811-7.811-20.474-7.811-28.284 0s-7.811 20.475 0 28.285l66 66c3.905 3.906 9.023 5.858 14.142 5.858s10.237-1.952 14.142-5.857c7.811-7.811 7.811-20.475 0-28.285zm-98.702-90.856c10.399 0 19.179-8.046 19.929-18.581.619-8.695 1.043-17.533 1.31-26.42h49.321c11.046 0 20-8.954 20-20s-8.954-20-20-20h-49.448c-1.94-44.284-10.317-89.63-25.467-137.98-3.303-10.539-14.523-16.408-25.065-13.104-10.541 3.303-16.408 14.524-13.105 25.065 13.895 44.344 21.649 85.775 23.584 126.02h-132.946c2.723-50.578 15.099-95.419 24.688-126.02 3.303-10.541-2.564-21.763-13.105-25.065-10.539-3.307-21.762 2.563-25.065 13.104-10.398 33.183-23.851 82.092-26.571 137.98h-49.5c-11.046 0-20 8.954-20 20s8.954 20 20 20h49.497c2.703 55.895 16.074 104.784 26.408 137.95 2.669 8.564 10.566 14.055 19.089 14.055 1.971 0 3.975-.293 5.956-.91 10.546-3.286 16.431-14.499 13.145-25.045-9.534-30.596-21.84-75.438-24.546-126.05h133.118c-.254 7.934-.644 15.819-1.197 23.58-.784 11.018 7.512 20.585 18.529 21.369.483.035.964.052 1.441.052zm-57.957 149.269c-9.054 1.148-18.301 1.73-27.483 1.73-119.103 0-216-96.897-216-216s96.897-216 216-216 216 96.897 216 216c0 8.835-.549 17.786-1.631 26.605-1.345 10.963 6.452 20.941 17.415 22.287 10.964 1.348 20.942-6.452 22.287-17.415 1.28-10.43 1.929-21.02 1.929-31.478 0-68.38-26.629-132.668-74.98-181.02-48.353-48.35-112.64-74.979-181.02-74.979s-132.667 26.629-181.02 74.98c-48.351 48.352-74.98 112.64-74.98 181.02s26.629 132.668 74.98 181.02c48.353 48.351 112.64 74.98 181.02 74.98 10.859 0 21.799-.689 32.517-2.049 10.958-1.39 18.714-11.399 17.324-22.357s-11.402-18.714-22.358-17.324z"/></svg>