<svg id="Layer_1" enable-background="new 0 0 512 512" height="512" viewBox="0 0 512 512" width="512" xmlns="http://www.w3.org/2000/svg"><path d="m392 512h-272c-66.168 0-120-53.832-120-120v-272c0-66.168 53.832-120 120-120h272c66.168 0 120 53.832 120 120v272c0 66.168-53.832 120-120 120zm-272-472c-44.112 0-80 35.888-80 80v272c0 44.112 35.888 80 80 80h272c44.112 0 80-35.888 80-80v-272c0-44.112-35.888-80-80-80zm312 89c0-11.046-8.954-20-20-20h-312c-11.046 0-20 8.954-20 20s8.954 20 20 20h312c11.046 0 20-8.954 20-20zm-53.882 301.166 36.291-36.168c11.344-11.309 17.59-26.349 17.591-42.35 0-16.001-6.247-31.042-17.59-42.351-.048-.048-.096-.095-.144-.142l-36.289-35.461c-7.899-7.72-20.563-7.574-28.282.327-7.72 7.899-7.573 20.563.327 28.282l36.201 35.376c3.726 3.742 5.776 8.699 5.776 13.968 0 5.293-2.071 10.273-5.829 14.02l-36.289 36.166c-7.823 7.797-7.845 20.46-.048 28.284 3.908 3.922 9.037 5.883 14.167 5.883 5.106 0 10.215-1.944 14.118-5.834zm-25.118-80.166c0-11.046-8.954-20-20-20h-63c-11.046 0-20 8.954-20 20s8.954 20 20 20h63c11.046 0 20-8.954 20-20zm-190.834.118c7.797-7.824 7.775-20.487-.048-28.284l-36.287-36.164c-3.76-3.748-5.831-8.729-5.831-14.021 0-5.269 2.051-10.226 5.776-13.968l36.201-35.376c7.9-7.72 8.047-20.383.327-28.282-7.722-7.902-20.384-8.044-28.282-.327l-36.289 35.461c-.048.047-.096.094-.144.142-11.342 11.307-17.589 26.348-17.589 42.349.001 16.001 6.247 31.041 17.593 42.352l36.289 36.166c3.903 3.891 9.011 5.834 14.118 5.834 5.13 0 10.259-1.962 14.166-5.882zm99.834-80.118c0-11.046-8.954-20-20-20h-63c-11.046 0-20 8.954-20 20s8.954 20 20 20h63c11.046 0 20-8.954 20-20z"/></svg>