<svg id="Layer_1" enable-background="new 0 0 512 512" height="512" viewBox="0 0 512 512" width="512" xmlns="http://www.w3.org/2000/svg"><path d="m272.424 130.576v103.424h38.576c11.046 0 20 8.954 20 20s-8.954 20-20 20h-38.576v106.424c0 22.373 18.202 40.576 40.576 40.576 11.046 0 20 8.954 20 20s-8.954 20-20 20c-44.43 0-80.576-36.146-80.576-80.576v-249.848c0-44.43 36.146-80.576 80.576-80.576 11.046 0 20 8.954 20 20s-8.954 20-20 20c-22.374 0-40.576 18.203-40.576 40.576zm239.576 123.424c0 39.701-32.299 72-72 72s-72-32.299-72-72 32.299-72 72-72 72 32.299 72 72zm-40 0c0-17.645-14.355-32-32-32s-32 14.355-32 32 14.355 32 32 32 32-14.355 32-32zm-104-182c0-39.701 32.299-72 72-72s72 32.299 72 72-32.299 72-72 72-72-32.299-72-72zm40 0c0 17.645 14.355 32 32 32s32-14.355 32-32-14.355-32-32-32-32 14.355-32 32zm-218 183.644v84.356c0 4.688-1.476 9.021-4.479 12.615-1.269 1.64-31.545 41.7-31.545 115.974 0 23.937-20.412 43.411-45.502 43.411h-26.948c-25.09 0-45.502-19.474-45.502-43.411 0-75.339-31.184-115.534-31.499-115.919-2.926-3.574-4.525-8.051-4.525-12.67v-84.356c0-48.878 39.766-88.644 88.644-88.644h12.712c48.878 0 88.644 39.766 88.644 88.644zm-40 0c0-26.822-21.822-48.644-48.644-48.644h-12.712c-26.822 0-48.644 21.822-48.644 48.644v77.953c10.619 15.927 36.023 61.694 36.023 134.992 0 1.316 2.518 3.411 5.502 3.411h26.948c2.984 0 5.502-2.095 5.502-3.411 0-73.297 25.405-119.065 36.024-134.992v-77.953zm-124-187.644c0-37.495 30.505-68 68-68s68 30.505 68 68-30.505 68-68 68-68-30.505-68-68zm40 0c0 15.439 12.561 28 28 28s28-12.561 28-28-12.561-28-28-28-28 12.561-28 28zm446 372c0 39.701-32.299 72-72 72s-72-32.299-72-72 32.299-72 72-72 72 32.299 72 72zm-40 0c0-17.645-14.355-32-32-32s-32 14.355-32 32 14.355 32 32 32 32-14.355 32-32z"/></svg>