<svg id="Layer_1" enable-background="new 0 0 512.391 512.391" height="512" viewBox="0 0 512.391 512.391" width="512" xmlns="http://www.w3.org/2000/svg"><path d="m211.196 0c-116.346 0-211 94.654-211 211s94.654 211 211 211 211-94.654 211-211-94.655-211-211-211zm0 382c-94.29 0-171-76.71-171-171s76.71-171 171-171 171 76.71 171 171-76.711 171-171 171zm295.142 124.533c-3.905 3.905-9.023 5.858-14.142 5.858s-10.237-1.953-14.142-5.858l-89.5-89.5c-7.811-7.811-7.811-20.474 0-28.284s20.474-7.811 28.284 0l89.5 89.5c7.81 7.811 7.81 20.474 0 28.284zm-192.993-357.628c-5.683-9.471-17.967-12.543-27.44-6.86l-13.569 8.142c-10.877-10.901-24.695-18.853-40.141-22.593v-17.399c0-11.046-8.954-20-20-20s-20 8.954-20 20v17.399c-15.798 3.826-29.881 12.071-40.868 23.356l-14.842-8.905c-9.472-5.684-21.756-2.612-27.44 6.86-5.683 9.472-2.612 21.757 6.86 27.44l15.004 9.002c-2.409 7.864-3.714 16.205-3.714 24.848 0 8.642 1.305 16.984 3.714 24.848l-15.003 9.002c-9.472 5.683-12.543 17.968-6.86 27.439 3.75 6.25 10.374 9.713 17.169 9.713 3.501 0 7.049-.92 10.271-2.853l14.842-8.905c10.987 11.286 25.07 19.53 40.868 23.356v17.399c0 11.046 8.954 20 20 20s20-8.954 20-20v-17.399c15.446-3.74 29.264-11.692 40.141-22.593l13.57 8.142c3.222 1.933 6.769 2.853 10.271 2.853 6.794 0 13.419-3.463 17.169-9.713 5.683-9.471 2.611-21.757-6.86-27.439l-13.323-7.994c2.611-8.158 4.034-16.843 4.034-25.856s-1.422-17.698-4.034-25.856l13.324-7.994c9.469-5.683 12.541-17.968 6.857-27.44zm-101.149 106.29c-24.813 0-45-20.187-45-45s20.187-45 45-45 45 20.187 45 45-20.187 45-45 45z"/></svg>