<?xml version="1.0" encoding="UTF-8" standalone="no"?>
<svg
   xmlns:dc="http://purl.org/dc/elements/1.1/"
   xmlns:cc="http://creativecommons.org/ns#"
   xmlns:rdf="http://www.w3.org/1999/02/22-rdf-syntax-ns#"
   xmlns:svg="http://www.w3.org/2000/svg"
   xmlns="http://www.w3.org/2000/svg"
   xmlns:xlink="http://www.w3.org/1999/xlink"
   xmlns:sodipodi="http://sodipodi.sourceforge.net/DTD/sodipodi-0.dtd"
   xmlns:inkscape="http://www.inkscape.org/namespaces/inkscape"
   width="90mm"
   height="50mm"
   viewBox="0 0 90 50"
   version="1.1"
   id="svg8"
   inkscape:version="1.0.2 (1.0.2+r75+1)"
   sodipodi:docname="Pexim-VIZITKA2.svg">
  <defs
     id="defs2">
    <rect
       x="-9.4259067"
       y="-3.247336"
       width="102.42474"
       height="59.225854"
       id="rect882" />
    <clipPath
       id="_clipPath_Tu8I7m8D7kn8iaRmsdTdm5xQuwRCyRLM">
      <rect
         id="rect839"
         height="155.906"
         width="240.945" />
    </clipPath>
    <clipPath
       id="_clipPath_GHrdMKYEogZkHZZwFoWOPK22c4WJamGR">
      <rect
         id="rect921"
         height="155.906"
         width="240.945" />
    </clipPath>
    <clipPath
       id="_clipPath_dLs23QFuR7LZgOEjzamVrX8lA9zqRbVT">
      <rect
         id="rect1068"
         height="155.906"
         width="240.945" />
    </clipPath>
    <linearGradient
       id="linearGradient1448"
       x1="3.9687"
       x2="3.9687"
       y1="16.404"
       y2="2.6458"
       gradientTransform="matrix(3.4646,0,0,3.4646,2.6663,2.6663)"
       gradientUnits="userSpaceOnUse">
      <stop
         stop-color="#00a0ff"
         offset="0"
         id="stop930" />
      <stop
         stop-color="#37beff"
         offset="1"
         id="stop932" />
    </linearGradient>
    <filter
       id="filter861"
       x="-.027"
       y="-.027"
       width="1.054"
       height="1.054"
       color-interpolation-filters="sRGB">
      <feGaussianBlur
         stdDeviation="0.16371"
         id="feGaussianBlur935" />
    </filter>
    <filter
       id="d"
       x="-.034693"
       y="-.037409"
       width="1.0694"
       height="1.0748"
       color-interpolation-filters="sRGB">
      <feGaussianBlur
         stdDeviation="1.7822209"
         id="feGaussianBlur938" />
    </filter>
    <linearGradient
       id="linearGradient1056"
       x1="13.784"
       x2="13.784"
       y1=".40289"
       y2="23.336"
       gradientTransform="matrix(5.12,0,0,5.12,29.82,-127.64)"
       gradientUnits="userSpaceOnUse">
      <stop
         stop-color="#fff"
         offset="0"
         id="stop941" />
      <stop
         stop-color="#ebfafa"
         offset="1"
         id="stop943" />
    </linearGradient>
    <linearGradient
       id="w"
       x1="123.64"
       x2="146.53"
       y1="131.03"
       y2="174.71"
       gradientTransform="matrix(4.2812,0,0,3.5908,41,42)"
       gradientUnits="userSpaceOnUse">
      <stop
         stop-color="#fafafa"
         offset="0"
         id="stop1006" />
      <stop
         stop-color="#fff"
         offset="1"
         id="stop1008" />
    </linearGradient>
    <filter
       id="filter1152"
       x="-.055255"
       y="-.065641"
       width="1.1105"
       height="1.1313"
       color-interpolation-filters="sRGB">
      <feGaussianBlur
         stdDeviation="2.9934784"
         id="feGaussianBlur1011" />
    </filter>
    <linearGradient
       id="linearGradient1448-5"
       x1="3.9687"
       x2="3.9687"
       y1="16.404"
       y2="2.6458"
       gradientTransform="matrix(0.91667,0,0,0.91667,0.70544,0.70544)"
       gradientUnits="userSpaceOnUse">
      <stop
         stop-color="#00a0ff"
         offset="0"
         id="stop1014" />
      <stop
         stop-color="#37beff"
         offset="1"
         id="stop1016" />
    </linearGradient>
    <filter
       id="filter861-9"
       x="-.027"
       y="-.027"
       width="1.054"
       height="1.054"
       color-interpolation-filters="sRGB">
      <feGaussianBlur
         stdDeviation="0.16371"
         id="feGaussianBlur1019" />
    </filter>
    <linearGradient
       gradientUnits="userSpaceOnUse"
       gradientTransform="matrix(0 32.792 -32.792 0 38.638 16.028)"
       x2="1"
       id="b">
      <stop
         id="stop2"
         offset="0"
         stop-color="#9c0000" />
      <stop
         id="stop4"
         offset=".7"
         stop-color="#ff4b4b" />
      <stop
         id="stop6"
         offset="1"
         stop-color="#ff4b4b" />
    </linearGradient>
    <linearGradient
       gradientUnits="userSpaceOnUse"
       gradientTransform="matrix(0 37.076 -37.076 0 29.033 13.843)"
       x2="1"
       id="a">
      <stop
         id="stop9"
         offset="0"
         stop-color="#ff1b2d" />
      <stop
         id="stop11"
         offset=".3"
         stop-color="#ff1b2d" />
      <stop
         id="stop13"
         offset=".61"
         stop-color="#ff1b2d" />
      <stop
         id="stop15"
         offset="1"
         stop-color="#a70014" />
    </linearGradient>
    <filter
       color-interpolation-filters="sRGB"
       height="1.072"
       width="1.072"
       y="-.036"
       x="-.036"
       id="d-4">
      <feGaussianBlur
         id="feGaussianBlur18"
         stdDeviation="9" />
    </filter>
    <linearGradient
       xlink:href="#linearGradient887"
       gradientUnits="userSpaceOnUse"
       gradientTransform="matrix(3.7795 0 0 3.7795 .00014309 .031541)"
       y2="1.852"
       y1="15.081"
       x2="7.9373"
       x1="7.9373"
       id="linearGradient862-3">
      <stop
         id="stop21"
         offset="0"
         stop-color="#f1efeb" />
      <stop
         id="stop23"
         offset="1"
         stop-color="#fdfcfc" />
    </linearGradient>
    <filter
       id="filter957"
       x="-0.2325"
       y="-0.051667001"
       width="1.465"
       height="1.1033"
       color-interpolation-filters="sRGB">
      <feGaussianBlur
         stdDeviation="0.775"
         id="feGaussianBlur17" />
    </filter>
    <linearGradient
       gradientTransform="translate(-2.7850799,0.85318792)"
       id="linearGradient911"
       x1="23"
       x2="23"
       y1="14"
       y2="50"
       gradientUnits="userSpaceOnUse"
       xlink:href="#linearGradient880" />
    <linearGradient
       id="linearGradient880"
       x1="15.938"
       x2="44.062"
       y1="44.845001"
       y2="44.845001"
       gradientTransform="rotate(2.3768,118.86,41.374)"
       gradientUnits="userSpaceOnUse">
      <stop
         stop-color="#f41e00"
         offset="0"
         id="stop10" />
      <stop
         stop-color="#00d500"
         offset="1"
         id="stop12" />
    </linearGradient>
    <filter
       id="filter961"
       x="-0.2325"
       y="-0.051667001"
       width="1.465"
       height="1.1033"
       color-interpolation-filters="sRGB">
      <feGaussianBlur
         stdDeviation="0.775"
         id="feGaussianBlur20" />
    </filter>
    <linearGradient
       gradientTransform="translate(-2.7850799,0.85318792)"
       id="linearGradient919"
       x1="41"
       x2="41"
       y1="14"
       y2="50"
       gradientUnits="userSpaceOnUse"
       xlink:href="#linearGradient880" />
    <linearGradient
       id="linearGradient4152"
       x1="26.173"
       x2="14.482"
       y1="32.403"
       y2="5.7698998"
       gradientTransform="matrix(1.246314,0,0,1.246314,2.0883163,6.8274752)"
       gradientUnits="userSpaceOnUse">
      <stop
         stop-color="#ffffff"
         offset="0"
         id="stop5" />
      <stop
         stop-color="#cbb0ea"
         offset="1"
         id="stop7" />
    </linearGradient>
    <filter
       id="filter907"
       x="-0.059999999"
       y="-0.059999999"
       width="1.12"
       height="1.12"
       color-interpolation-filters="sRGB">
      <feGaussianBlur
         stdDeviation="0.21166213"
         id="feGaussianBlur15" />
    </filter>
    <linearGradient
       gradientTransform="matrix(4.749479,0,0,4.7065135,-9.3627347,-9.0024345)"
       id="linearGradient887"
       x1="8.4665003"
       x2="8.4665003"
       y1="0.52920002"
       y2="16.403999"
       gradientUnits="userSpaceOnUse">
      <stop
         stop-color="#7d519e"
         offset="0"
         id="stop10-0" />
      <stop
         stop-color="#a987c2"
         offset="1"
         id="stop12-4" />
    </linearGradient>
    <filter
       id="c"
       x="-0.035999998"
       y="-0.035999998"
       width="1.072"
       height="1.072"
       color-interpolation-filters="sRGB">
      <feGaussianBlur
         stdDeviation="0.23812032"
         id="feGaussianBlur2" />
    </filter>
    <linearGradient
       gradientUnits="userSpaceOnUse"
       y2="3.7588553"
       x2="32.241146"
       y1="59.651268"
       x1="32.241146"
       id="linearGradient7696"
       xlink:href="#linearGradient887" />
    <linearGradient
       id="linearGradient862-3-6"
       x1="7.9373"
       x2="7.9373"
       y1="15.081"
       y2="1.852"
       gradientTransform="scale(3.7796)"
       gradientUnits="userSpaceOnUse">
      <stop
         stop-color="#6083f1"
         offset="0"
         id="stop1182" />
      <stop
         stop-color="#85b6ff"
         offset="1"
         id="stop1184" />
    </linearGradient>
    <filter
       id="filter981"
       x="-.084859"
       y="-.1485"
       width="1.1697"
       height="1.297"
       color-interpolation-filters="sRGB">
      <feGaussianBlur
         stdDeviation="1.237486"
         id="feGaussianBlur1187" />
    </filter>
  </defs>
  <sodipodi:namedview
     id="base"
     pagecolor="#ffffff"
     bordercolor="#666666"
     borderopacity="1.0"
     inkscape:pageopacity="0.0"
     inkscape:pageshadow="2"
     inkscape:zoom="1.4"
     inkscape:cx="279.60602"
     inkscape:cy="131.36285"
     inkscape:document-units="mm"
     inkscape:current-layer="layer1"
     inkscape:document-rotation="0"
     showgrid="false"
     objecttolerance="51"
     guidetolerance="51"
     showguides="true"
     inkscape:guide-bbox="true"
     inkscape:window-width="1920"
     inkscape:window-height="1053"
     inkscape:window-x="0"
     inkscape:window-y="27"
     inkscape:window-maximized="1" />
  <metadata
     id="metadata5">
    <rdf:RDF>
      <cc:Work
         rdf:about="">
        <dc:format>image/svg+xml</dc:format>
        <dc:type
           rdf:resource="http://purl.org/dc/dcmitype/StillImage" />
        <dc:title />
      </cc:Work>
    </rdf:RDF>
  </metadata>
  <g
     inkscape:label="Layer 1"
     inkscape:groupmode="layer"
     id="layer1">
    <rect
       style="fill:#333333;stroke-width:23.4947"
       id="rect833"
       width="167.27589"
       height="93.159599"
       x="-0.014510926"
       y="-0.076715857"
       inkscape:export-filename="/home/pexim/Documents/WEBSITES/essenceweb/rect833.png"
       inkscape:export-xdpi="96"
       inkscape:export-ydpi="96" />
    <g
       id="g1039"
       transform="matrix(1.2079705,0,0,1.2079705,-152.28476,47.017001)"
       inkscape:export-filename="/home/pexim/Documents/WEBSITES/essenceweb/rect833.png"
       inkscape:export-xdpi="96"
       inkscape:export-ydpi="96">
      <rect
         y="25.275627"
         x="131.57179"
         height="7.8459458"
         width="7.8459458"
         id="rect837"
         style="fill:#71c837;stroke-width:19.1167" />
      <g
         transform="matrix(0.07797941,0,0,0.07797941,127.34806,20.160358)"
         id="g938"
         style="isolation:isolate;fill:#dee3db">
        <path
           style="fill:#dee3db"
           id="path936"
           fill="#e3e1e1"
           d="m 104.472,82.572 c -12.9,0 -23.333,10.434 -23.333,23.334 0,17.5 23.333,43.333 23.333,43.333 0,0 23.334,-25.833 23.334,-43.333 0,-12.9 -10.434,-23.334 -23.334,-23.334 z m 0,31.667 c -4.602,0 -8.333,-3.731 -8.333,-8.333 0,-4.603 3.731,-8.334 8.333,-8.334 4.603,0 8.334,3.731 8.334,8.334 0,4.602 -3.731,8.333 -8.334,8.333 z" />
      </g>
    </g>
    <g
       id="g1021"
       transform="matrix(1.2079705,0,0,1.2079705,-152.2533,5.4977151)"
       inkscape:export-filename="/home/pexim/Documents/WEBSITES/essenceweb/rect833.png"
       inkscape:export-xdpi="96"
       inkscape:export-ydpi="96">
      <rect
         style="fill:#71c837;stroke-width:19.1167"
         id="rect985"
         width="7.8459458"
         height="7.8459458"
         x="131.54575"
         y="33.886398" />
      <g
         transform="matrix(0.07416077,0,0,0.07416077,132.11502,34.605403)"
         id="g928"
         style="isolation:isolate">
        <path
           id="path926"
           fill="#e3e1e1"
           d="m 71.889,54.869 c -4.167,0 -8.167,-0.666 -11.9,-1.9 -1.194,-0.38 -2.501,-0.072 -3.4,0.8 l -7.333,7.334 C 39.793,56.29 32.102,48.599 27.289,39.136 l 7.333,-7.367 c 0.902,-0.855 1.227,-2.154 0.834,-3.333 -1.265,-3.84 -1.906,-7.857 -1.9,-11.9 0,-1.833 -1.5,-3.333 -3.334,-3.333 H 18.556 c -1.834,0 -3.334,1.5 -3.334,3.333 0,31.3 25.367,56.667 56.667,56.667 1.833,0 3.333,-1.5 3.333,-3.334 V 58.203 c 0,-1.834 -1.5,-3.334 -3.333,-3.334 z M 68.556,43.203 h 6.666 c 0,-16.569 -13.431,-30 -30,-30 v 6.666 c 12.9,0 23.334,10.434 23.334,23.334 z m -13.334,0 h 6.667 c 0,-9.2 -7.467,-16.667 -16.667,-16.667 v 6.667 c 5.534,0 10,4.466 10,10 z" />
      </g>
    </g>
    <g
       id="g1031"
       transform="matrix(1.2079705,0,0,1.2079705,-171.47971,27.948636)"
       inkscape:export-filename="/home/pexim/Documents/WEBSITES/essenceweb/rect833.png"
       inkscape:export-xdpi="96"
       inkscape:export-ydpi="96">
      <g
         transform="translate(15.890241,-10.435548)"
         id="g992">
        <rect
           style="fill:#71c837;stroke-width:19.1167"
           id="rect987"
           width="7.8459458"
           height="7.8459458"
           x="131.57179"
           y="42.909851" />
        <g
           style="isolation:isolate"
           id="g934"
           transform="matrix(0.08718926,0,0,0.08718926,118.84402,36.861427)">
          <path
             d="m 190.973,84.43 c 2.747,0 5.398,0.357 7.951,1.067 2.554,0.715 4.94,1.715 7.163,3.013 2.214,1.291 4.253,2.863 6.065,4.676 1.821,1.821 3.382,3.844 4.676,6.065 1.307,2.248 2.32,4.656 3.012,7.163 0.712,2.554 1.067,5.203 1.067,7.951 0,2.748 -0.357,5.399 -1.067,7.951 -0.692,2.507 -1.705,4.915 -3.012,7.163 -1.291,2.215 -2.863,4.253 -4.676,6.065 -1.822,1.821 -3.845,3.382 -6.065,4.676 -2.249,1.308 -4.656,2.32 -7.163,3.012 -2.59,0.717 -5.265,1.076 -7.951,1.068 -2.746,0 -5.399,-0.358 -7.952,-1.068 -2.507,-0.692 -4.914,-1.704 -7.163,-3.012 -2.214,-1.291 -4.253,-2.863 -6.064,-4.676 -1.814,-1.812 -3.386,-3.85 -4.677,-6.065 -1.304,-2.244 -2.316,-4.647 -3.01,-7.148 -0.719,-2.594 -1.079,-5.274 -1.069,-7.966 0,-2.748 0.357,-5.399 1.069,-7.951 0.692,-2.507 1.703,-4.915 3.01,-7.163 1.292,-2.215 2.863,-4.253 4.677,-6.065 1.811,-1.815 3.85,-3.386 6.066,-4.676 2.244,-1.306 4.646,-2.318 7.147,-3.013 2.594,-0.718 5.274,-1.077 7.966,-1.067 z m -26.192,29.935 c 0,2.592 0.36,5.088 1.08,7.485 h 10.613 c -0.31,-2.483 -0.467,-4.983 -0.469,-7.485 -0.001,-2.502 0.156,-5.001 0.469,-7.483 h -10.613 c -0.724,2.428 -1.088,4.949 -1.08,7.483 z m 17.627,-24.761 c -1.636,0.567 -3.206,1.296 -4.705,2.191 -1.5,0.897 -2.895,1.92 -4.181,3.071 -1.291,1.155 -2.466,2.432 -3.508,3.815 -1.049,1.389 -1.95,2.882 -2.689,4.458 h 9.735 c 0.239,-1.187 0.512,-2.367 0.819,-3.538 0.312,-1.192 0.688,-2.368 1.126,-3.52 0.439,-1.16 0.939,-2.286 1.504,-3.376 0.567,-1.092 1.197,-2.126 1.899,-3.101 z m -15.085,35.985 c 0.74,1.58 1.637,3.067 2.689,4.46 2.089,2.774 4.701,5.113 7.688,6.886 1.502,0.894 3.07,1.628 4.706,2.191 -0.708,-0.986 -1.342,-2.021 -1.899,-3.099 -0.568,-1.094 -1.071,-2.222 -1.506,-3.376 -0.436,-1.154 -0.812,-2.33 -1.126,-3.523 -0.309,-1.17 -0.582,-2.349 -0.819,-3.535 h -9.733 v -0.002 z m 34.378,-3.739 c 0.157,-1.248 0.279,-2.492 0.367,-3.729 0.178,-2.501 0.178,-5.011 0,-7.512 -0.088,-1.239 -0.21,-2.479 -0.367,-3.727 h -21.457 c -0.155,1.239 -0.277,2.482 -0.365,3.727 -0.178,2.501 -0.178,5.011 0,7.512 0.088,1.239 0.21,2.479 0.365,3.729 z M 190.973,88.172 c -0.95,-0.002 -1.879,0.272 -2.675,0.789 -0.827,0.528 -1.592,1.219 -2.294,2.076 -0.701,0.859 -1.329,1.828 -1.886,2.909 -1.062,2.081 -1.919,4.26 -2.559,6.506 -0.255,0.888 -0.479,1.785 -0.672,2.689 h 20.173 c -0.43,-2.011 -1.016,-3.985 -1.754,-5.905 -0.433,-1.122 -0.926,-2.22 -1.477,-3.29 -0.523,-1.033 -1.155,-2.009 -1.884,-2.909 -0.649,-0.811 -1.425,-1.511 -2.296,-2.076 -0.797,-0.516 -1.727,-0.791 -2.676,-0.789 z m 0,52.386 c 0.955,0 1.848,-0.262 2.674,-0.79 0.829,-0.527 1.594,-1.218 2.296,-2.075 0.701,-0.859 1.329,-1.828 1.886,-2.91 1.062,-2.08 1.919,-4.259 2.559,-6.505 0.255,-0.889 0.478,-1.785 0.67,-2.689 h -20.169 c 0.429,2.011 1.015,3.985 1.752,5.905 0.429,1.111 0.922,2.206 1.477,3.289 0.557,1.082 1.185,2.051 1.886,2.91 0.702,0.857 1.467,1.55 2.294,2.075 0.83,0.526 1.721,0.79 2.675,0.79 z m 23.651,-37.419 c -0.738,-1.576 -1.64,-3.07 -2.689,-4.458 -2.089,-2.774 -4.701,-5.114 -7.688,-6.886 -1.489,-0.89 -3.066,-1.625 -4.706,-2.191 0.7,0.975 1.334,2.006 1.899,3.099 0.567,1.092 1.067,2.216 1.506,3.376 0.437,1.159 0.813,2.331 1.126,3.522 0.311,1.189 0.584,2.368 0.818,3.536 h 9.734 z m -15.087,35.987 c 1.64,-0.566 3.217,-1.301 4.705,-2.191 1.489,-0.888 2.89,-1.917 4.183,-3.072 1.291,-1.154 2.466,-2.431 3.508,-3.814 1.049,-1.389 1.95,-2.883 2.689,-4.458 h -9.737 c -0.239,1.187 -0.512,2.366 -0.819,3.537 -0.312,1.193 -0.687,2.368 -1.124,3.521 -0.435,1.154 -0.938,2.281 -1.504,3.376 -0.567,1.092 -1.197,2.126 -1.901,3.101 z m 17.629,-24.761 c 0,-2.592 -0.361,-5.088 -1.08,-7.483 h -10.613 c 0.31,2.483 0.466,4.981 0.467,7.483 0.002,2.502 -0.154,5.002 -0.467,7.485 h 10.613 c 0.719,-2.397 1.08,-4.893 1.08,-7.485 z"
             fill-rule="evenodd"
             fill="#e3e1e1"
             id="path932" />
        </g>
      </g>
    </g>
    <g
       id="g1025"
       transform="matrix(1.2079705,0,0,1.2079705,-152.2533,6.3926184)"
       inkscape:export-filename="/home/pexim/Documents/WEBSITES/essenceweb/rect833.png"
       inkscape:export-xdpi="96"
       inkscape:export-ydpi="96">
      <g
         id="g1043"
         transform="translate(-0.02604675,-9.0234528)">
        <rect
           y="50.755798"
           x="131.57179"
           height="7.8459458"
           width="7.8459458"
           id="rect994"
           style="fill:#71c837;stroke-width:19.1167" />
        <path
           style="isolation:isolate;stroke-width:0.0685336"
           d="m 132.78866,52.73037 v 3.896803 h 5.41221 V 52.73037 Z m 4.97929,1.003739 -2.27318,1.288837 -2.27312,-1.288837 v -0.255355 l 2.27312,1.288768 2.27318,-1.288768 z"
           fill="#e3e1e1"
           id="path930" />
      </g>
    </g>
    <g
       id="g1098"
       transform="matrix(1.8512866,0,0,1.8512866,-74.229354,23.148535)"
       inkscape:export-filename="/home/pexim/Documents/WEBSITES/essenceweb/rect833.png"
       inkscape:export-xdpi="96"
       inkscape:export-ydpi="96">
      <rect
         style="fill:#71c837;fill-opacity:1;stroke-width:10.6876"
         id="rect1064"
         width="5.1149821"
         height="5.2127414"
         x="114.74077"
         y="11.688426"
         inkscape:transform-center-x="0.78347193"
         inkscape:transform-center-y="1.2581514" />
      <g
         transform="matrix(0.14988395,0,0,0.14988395,99.241437,2.6108932)"
         id="g1091"
         style="isolation:isolate">
        <path
           d="m 109.472,65.25 v 22 h 7.563 l 2.718,2.719 0.719,0.687 0.719,-0.687 2.718,-2.719 h 7.563 v -22 z m 2,2 h 18 v 18 h -6.406 l -0.313,0.281 -2.281,2.282 -2.281,-2.282 -0.313,-0.281 h -6.406 z m 9,3 c -2.2,0 -4,1.8 -4,4 0.004,1.028 0.408,2.014 1.125,2.75 -1.852,1.023 -3.125,2.996 -3.125,5.25 h 2 c 0,-2.219 1.781,-4 4,-4 2.219,0 4,1.781 4,4 h 2 c 0,-2.254 -1.273,-4.227 -3.125,-5.25 0.718,-0.736 1.122,-1.722 1.125,-2.75 0,-2.2 -1.8,-4 -4,-4 z m 0,2 c 1.117,0 2,0.883 2,2 0,1.117 -0.883,2 -2,2 -1.117,0 -2,-0.883 -2,-2 0,-1.117 0.883,-2 2,-2 z"
           fill="#e3e1e1"
           id="path1073" />
      </g>
    </g>
    <text
       id="text1106"
       y="52.53006"
       x="21.546915"
       style="font-style:normal;font-weight:normal;font-size:3.91856px;line-height:1.25;font-family:sans-serif;fill:#000000;fill-opacity:1;stroke:none;stroke-width:0.173743"
       xml:space="preserve"
       inkscape:export-filename="/home/pexim/Documents/WEBSITES/essenceweb/rect833.png"
       inkscape:export-xdpi="96"
       inkscape:export-ydpi="96"><tspan
         style="font-style:normal;font-variant:normal;font-weight:300;font-stretch:normal;font-size:3.91856px;font-family:Ubuntu;-inkscape-font-specification:'Ubuntu Light';fill:#cccccc;stroke-width:0.173743"
         y="52.53006"
         x="21.546915"
         id="tspan1104"
         sodipodi:role="line">+ 381 61 2898 566</tspan></text>
    <text
       xml:space="preserve"
       style="font-style:normal;font-weight:normal;font-size:3.91856px;line-height:1.25;font-family:sans-serif;fill:#000000;fill-opacity:1;stroke:none;stroke-width:0.173743"
       x="21.546915"
       y="62.700832"
       id="text1110"
       inkscape:export-filename="/home/pexim/Documents/WEBSITES/essenceweb/rect833.png"
       inkscape:export-xdpi="96"
       inkscape:export-ydpi="96"><tspan
         sodipodi:role="line"
         id="tspan1108"
         x="21.546915"
         y="62.700832"
         style="font-style:normal;font-variant:normal;font-weight:300;font-stretch:normal;font-size:3.91856px;font-family:Ubuntu;-inkscape-font-specification:'Ubuntu Light';fill:#cccccc;stroke-width:0.173743">pedja@essenceweb.rs</tspan></text>
    <text
       id="text1114"
       y="73.067528"
       x="21.546915"
       style="font-style:normal;font-weight:normal;font-size:3.91856px;line-height:1.25;font-family:sans-serif;fill:#000000;fill-opacity:1;stroke:none;stroke-width:0.173743"
       xml:space="preserve"
       inkscape:export-filename="/home/pexim/Documents/WEBSITES/essenceweb/rect833.png"
       inkscape:export-xdpi="96"
       inkscape:export-ydpi="96"><tspan
         style="font-style:normal;font-variant:normal;font-weight:300;font-stretch:normal;font-size:3.91856px;font-family:Ubuntu;-inkscape-font-specification:'Ubuntu Light';fill:#cccccc;stroke-width:0.173743"
         y="73.067528"
         x="21.546915"
         id="tspan1112"
         sodipodi:role="line">www.essenceweb.rs</tspan></text>
    <text
       xml:space="preserve"
       style="font-style:normal;font-weight:normal;font-size:3.91856px;line-height:1.25;font-family:sans-serif;fill:#000000;fill-opacity:1;stroke:none;stroke-width:0.173743"
       x="21.546915"
       y="83.44207"
       id="text1118"
       inkscape:export-filename="/home/pexim/Documents/WEBSITES/essenceweb/rect833.png"
       inkscape:export-xdpi="96"
       inkscape:export-ydpi="96"><tspan
         sodipodi:role="line"
         id="tspan1116"
         x="21.546915"
         y="83.44207"
         style="font-style:normal;font-variant:normal;font-weight:300;font-stretch:normal;font-size:3.91856px;font-family:Ubuntu;-inkscape-font-specification:'Ubuntu Light';fill:#cccccc;stroke-width:0.173743">Ratarska 29, 11273 Batajnica</tspan></text>
    <rect
       inkscape:transform-center-y="22.498605"
       inkscape:transform-center-x="1.450424"
       y="-0.076715857"
       x="157.7921"
       height="93.21566"
       width="9.4692974"
       id="rect1120"
       style="fill:#71c837;fill-opacity:1;stroke-width:61.4931"
       inkscape:export-filename="/home/pexim/Documents/WEBSITES/essenceweb/rect833.png"
       inkscape:export-xdpi="96"
       inkscape:export-ydpi="96" />
    <rect
       style="fill:#71c837;fill-opacity:1;stroke-width:20.2231"
       id="rect1122"
       width="9.8924341"
       height="9.6502781"
       x="148.56093"
       y="44.787163"
       inkscape:transform-center-x="1.5152433"
       inkscape:transform-center-y="2.3292001"
       inkscape:export-filename="/home/pexim/Documents/WEBSITES/essenceweb/rect833.png"
       inkscape:export-xdpi="96"
       inkscape:export-ydpi="96" />
    <text
       xml:space="preserve"
       style="font-style:normal;font-weight:normal;font-size:6.14466px;line-height:1.25;font-family:sans-serif;fill:#71c837;fill-opacity:1;stroke:none;stroke-width:0.163467"
       x="92.112297"
       y="49.563034"
       id="text1102"
       inkscape:export-filename="/home/pexim/Documents/WEBSITES/essenceweb/rect833.png"
       inkscape:export-xdpi="96"
       inkscape:export-ydpi="96"><tspan
         sodipodi:role="line"
         id="tspan1100"
         x="92.112297"
         y="49.563034"
         style="font-style:normal;font-variant:normal;font-weight:normal;font-stretch:normal;font-size:6.14466px;font-family:Ubuntu;-inkscape-font-specification:Ubuntu;fill:#71c837;fill-opacity:1;stroke-width:0.163467">Peđa <tspan
   id="tspan882"
   style="font-style:normal;font-variant:normal;font-weight:300;font-stretch:normal;font-family:Ubuntu;-inkscape-font-specification:'Ubuntu Light';stroke-width:0.163467">Radojević</tspan></tspan></text>
    <text
       xml:space="preserve"
       style="font-style:normal;font-weight:normal;font-size:3.91856px;line-height:1.25;font-family:sans-serif;fill:#000000;fill-opacity:1;stroke:none;stroke-width:0.173743"
       x="92.280968"
       y="54.133091"
       id="text1135"
       inkscape:export-filename="/home/pexim/Documents/WEBSITES/essenceweb/rect833.png"
       inkscape:export-xdpi="96"
       inkscape:export-ydpi="96"><tspan
         sodipodi:role="line"
         id="tspan1133"
         x="92.280968"
         y="54.133091"
         style="font-style:normal;font-variant:normal;font-weight:300;font-stretch:normal;font-size:3.91856px;font-family:Ubuntu;-inkscape-font-specification:'Ubuntu Light';fill:#cccccc;stroke-width:0.173743">Head of design</tspan></text>
    <text
       xml:space="preserve"
       id="text880"
       style="font-style:normal;font-weight:normal;font-size:10.5833px;line-height:1.25;font-family:sans-serif;white-space:pre;shape-inside:url(#rect882);fill:#000000;fill-opacity:1;stroke:none;" />
    <g
       id="g1907"
       transform="matrix(1.001697,0,0,1,-2.3769577,-18.753401)">
      <rect
         style="fill:#333333;fill-opacity:1;stroke:#5880c9;stroke-width:0"
         id="rect886"
         width="59.29108"
         height="17.082067"
         x="-1.1890999"
         y="-30.897778" />
      <rect
         style="fill:#71c837;fill-opacity:1;stroke:#5880c9;stroke-width:0"
         id="rect888"
         width="30.911846"
         height="17.082067"
         x="58.101978"
         y="-30.897778" />
      <text
         xml:space="preserve"
         style="font-style:normal;font-weight:normal;font-size:10.5833px;line-height:1.25;font-family:sans-serif;fill:#71c837;fill-opacity:1;stroke:none;stroke-width:0.264583"
         x="14.61445"
         y="-18.504278"
         id="text892"><tspan
           sodipodi:role="line"
           id="tspan890"
           x="14.61445"
           y="-18.504278"
           style="font-style:normal;font-variant:normal;font-weight:normal;font-stretch:normal;font-family:Rosario;-inkscape-font-specification:Rosario;fill:#71c837;fill-opacity:1;stroke-width:0.264583">ESSENCE</tspan></text>
      <text
         xml:space="preserve"
         style="font-style:normal;font-weight:normal;font-size:10.5833px;line-height:1.25;font-family:sans-serif;fill:#333333;fill-opacity:1;stroke:none;stroke-width:0.264583"
         x="59.10743"
         y="-18.499111"
         id="text896"><tspan
           sodipodi:role="line"
           id="tspan894"
           x="59.10743"
           y="-18.499111"
           style="font-style:normal;font-variant:normal;font-weight:normal;font-stretch:normal;font-family:Rosario;-inkscape-font-specification:Rosario;fill:#333333;fill-opacity:1;stroke-width:0.264583">WEB</tspan></text>
    </g>
    <text
       xml:space="preserve"
       style="font-style:normal;font-weight:normal;font-size:2.0189px;line-height:1.25;font-family:sans-serif;fill:#808080;fill-opacity:1;stroke:none;stroke-width:0.0755422"
       x="-29.965847"
       y="-0.40589002"
       id="text926"><tspan
         sodipodi:role="line"
         id="tspan924"
         x="-29.965847"
         y="-0.40589002"
         style="font-style:normal;font-variant:normal;font-weight:normal;font-stretch:normal;font-size:2.0189px;font-family:Ubuntu;-inkscape-font-specification:Ubuntu;fill:#ffffff;fill-opacity:1;stroke-width:0.0755422">essenceWEB®</tspan></text>
    <g
       id="g1004"
       transform="matrix(0.71882482,0,0,0.71882482,207.12282,153.57755)"
       inkscape:export-filename="/home/pexim/Documents/WEBSITES/essenceweb/g1004.png"
       inkscape:export-xdpi="96"
       inkscape:export-ydpi="96">
      <g
         transform="matrix(3.7796,0,0,3.7796,-82.52,3.3911)"
         fill="#5e4aa6"
         stroke-width="0.26458"
         id="g956">
        <circle
           cx="-330.35001"
           cy="-328.38"
           r="0"
           id="circle948" />
        <circle
           cx="-312.10999"
           cy="-326.25"
           r="0"
           id="circle950" />
        <circle
           cx="-306.01999"
           cy="-333.07001"
           r="0"
           id="circle952" />
        <circle
           cx="-308.84"
           cy="-326.01001"
           r="0"
           id="circle954" />
      </g>
      <rect
         transform="matrix(3.7796,0,0,3.7796,-1.011e-6,-1.011e-6)"
         x="1.1905"
         y="1.1905"
         width="14.552"
         height="14.552"
         ry="3.4395001"
         filter="url(#filter861)"
         opacity="0.3"
         stroke-opacity="0.95294"
         stroke-width="0.083153"
         id="rect958" />
      <rect
         x="4.4995999"
         y="4.4995999"
         width="55.000999"
         height="55.000999"
         ry="13"
         fill="url(#linearGradient1448)"
         stroke-opacity="0.95294"
         stroke-width="0.31428"
         id="rect960"
         style="fill:url(#linearGradient1448)" />
      <g
         transform="matrix(0.90932,0,0,0.90932,2.9018,2.9018)"
         stroke-width="15.622"
         id="g974">
        <g
           transform="matrix(0.33364,0,0,0.33364,1.4833,54.019)"
           filter="url(#d)"
           opacity="0.2"
           id="g966">
          <g
             stroke-width="15.622"
             id="g964">
            <path
               d="m 147.73,-58.551 c 1.7408,2.4627 3.0669,5.1354 3.9936,8.064 0.9216,2.9184 1.3875,5.9392 1.3875,9.0675 0,4.48 -0.90624,8.6886 -2.6982,12.631 -1.7971,3.9322 -4.2701,7.3984 -7.424,10.409 -3.1539,2.9798 -6.825,5.3197 -11.044,7.0195 -4.2189,1.6998 -8.6579,2.5344 -13.379,2.5344 -6.7226,0 -12.754,-1.5872 -18.104,-4.7565 -1.4848,0.2048 -2.9798,0.35328 -4.4902,0.46592 -1.5155,0.1024 -3.0157,0.14336 -4.5158,0.14336 -7.8541,0 -15.227,-1.408 -22.124,-4.2138 -6.8813,-2.8211 -12.908,-6.6509 -18.099,-11.53 -5.1763,-4.8589 -9.257,-10.588 -12.196,-17.147 -2.9645,-6.5587 -4.4442,-13.568 -4.4442,-21.018 0,-1.4438 0.07168,-2.816 0.22528,-4.0858 0.13824,-1.2698 0.32768,-2.5651 0.52224,-3.8605 -3.6864,-5.1149 -5.5194,-10.609 -5.5194,-16.502 0,-4.3827 0.90624,-8.5248 2.7034,-12.421 1.792,-3.8912 4.2496,-7.2755 7.4035,-10.148 3.1539,-2.8774 6.8454,-5.1405 11.039,-6.7994 4.2035,-1.6589 8.663,-2.4678 13.384,-2.4678 3.3997,0 6.5894,0.39936 9.6205,1.2134 3.031,0.82432 5.8675,1.9712 8.4838,3.4714 1.4797,-0.20992 2.9952,-0.3584 4.4902,-0.47616 1.5155,-0.0922 3.031,-0.14848 4.5107,-0.14848 7.8797,0 15.278,1.3722 22.195,4.1011 6.9018,2.7085 12.943,6.4614 18.135,11.223 5.1917,4.7821 9.2826,10.317 12.252,16.614 2.9594,6.3078 4.439,13.076 4.439,20.285 0.005,2.6573 -0.24064,5.4374 -0.74752,8.3302 z m -29.164,16.394 c 2.4269,-3.1949 3.625,-6.9478 3.625,-11.259 0,-3.3946 -0.67584,-6.2464 -2.007,-8.5606 -1.3875,-2.304 -3.3434,-4.2342 -5.8675,-5.7754 -2.3194,-1.495 -5.335,-2.8211 -9.0266,-4.009 -3.712,-0.93184 -7.6493,-1.8432 -11.812,-2.775 l -4.5619,-1.0394 c -1.2237,-0.26112 -2.1965,-0.48128 -2.9286,-0.68096 -0.81408,-0.19968 -1.5667,-0.41984 -2.2835,-0.68096 -0.67584,-0.24064 -1.3926,-0.52224 -2.1094,-0.82944 -1.3926,-0.58368 -2.56,-1.3773 -3.4867,-2.3091 -0.7168,-0.80384 -1.0752,-1.8842 -1.0752,-3.2256 0,-1.961 1.1674,-3.712 3.4867,-5.2634 2.6266,-1.449 5.8368,-2.1453 9.6512,-2.0992 4.4083,0 7.5059,0.65024 9.2518,1.9558 2.1094,1.5462 3.7632,3.4509 4.9459,5.6986 1.0291,1.6486 2.0736,2.8774 3.1539,3.6864 1.0291,0.78848 2.4576,1.2134 4.2547,1.2698 2.0224,0 3.6966,-0.67072 5.1046,-2.0224 1.3773,-1.2595 2.0378,-2.6778 2.0019,-4.2752 0,-1.8483 -0.52224,-3.6659 -1.5462,-5.417 -1.0138,-1.6435 -2.7187,-3.3946 -5.0688,-5.2531 -1.1878,-0.79872 -2.4934,-1.5309 -3.9014,-2.2016 -1.4131,-0.67584 -3.0003,-1.2698 -4.7258,-1.7715 -1.8074,-0.49152 -3.7069,-0.8704 -5.7088,-1.1264 -2.007,-0.25088 -4.1984,-0.36864 -6.6253,-0.36864 -6.1133,0 -11.269,0.74752 -15.468,2.2426 -4.5107,1.5565 -7.9258,3.6966 -10.24,6.4717 -2.3142,2.6419 -3.4714,5.8163 -3.4714,9.5232 0,3.9014 1.1213,7.0758 3.3331,9.5232 2.2272,2.647 5.2429,4.649 9.0573,6.0058 3.625,1.449 8.2586,2.7187 13.942,3.8144 2.1248,0.50176 3.9834,0.92672 5.6269,1.2493 1.6179,0.31744 3.0874,0.68096 4.3725,1.0752 2.4218,0.66048 4.3878,1.7664 5.888,3.3382 1.6026,1.3619 2.4064,3.113 2.4064,5.2736 0,2.985 -1.4643,5.4016 -4.3571,7.2448 -2.7341,1.8893 -6.4307,2.8211 -11.085,2.7546 -3.7274,0 -6.4256,-0.43008 -8.1357,-1.3005 -2.1248,-0.96768 -3.6915,-2.1965 -4.7206,-3.6608 -1.3056,-1.6691 -2.3501,-3.5226 -3.1898,-5.5245 -0.73216,-1.8995 -1.7203,-3.3331 -3.0106,-4.3008 -1.2032,-0.97792 -2.6112,-1.4643 -4.265,-1.4643 -2.1094,0 -3.8502,0.5888 -5.2275,1.7459 -1.3773,1.3158 -2.0378,2.857 -2.007,4.5875 0,3.0157 1.1162,6.0314 3.328,9.0522 2.1965,3.1078 5.0176,5.5347 8.4531,7.2806 5.033,2.601 11.356,3.9168 18.954,3.968 6.2003,0 11.725,-0.9216 16.532,-2.7597 4.7206,-2.0941 8.2432,-4.6899 10.542,-7.808 z"
               stroke-width="79.985"
               id="path962" />
          </g>
        </g>
        <g
           transform="matrix(0.33364,0,0,0.33364,1.4836,54.019)"
           id="g972">
          <g
             stroke-width="15.622"
             id="g970">
            <path
               d="m 147.73,-58.551 c 1.7408,2.4627 3.0669,5.1354 3.9936,8.064 0.9216,2.9184 1.3875,5.9392 1.3875,9.0675 0,4.48 -0.90624,8.6886 -2.6982,12.631 -1.7971,3.9322 -4.2701,7.3984 -7.424,10.409 -3.1539,2.9798 -6.825,5.3197 -11.044,7.0195 -4.2189,1.6998 -8.6579,2.5344 -13.379,2.5344 -6.7226,0 -12.754,-1.5872 -18.104,-4.7565 -1.4848,0.2048 -2.9798,0.35328 -4.4902,0.46592 -1.5155,0.1024 -3.0157,0.14336 -4.5158,0.14336 -7.8541,0 -15.227,-1.408 -22.124,-4.2138 -6.8813,-2.8211 -12.908,-6.6509 -18.099,-11.53 -5.1763,-4.8589 -9.257,-10.588 -12.196,-17.147 -2.9645,-6.5587 -4.4442,-13.568 -4.4442,-21.018 0,-1.4438 0.07168,-2.816 0.22528,-4.0858 0.13824,-1.2698 0.32768,-2.5651 0.52224,-3.8605 -3.6864,-5.1149 -5.5194,-10.609 -5.5194,-16.502 0,-4.3827 0.90624,-8.5248 2.7034,-12.421 1.792,-3.8912 4.2496,-7.2755 7.4035,-10.148 3.1539,-2.8774 6.8454,-5.1405 11.039,-6.7994 4.2035,-1.6589 8.663,-2.4678 13.384,-2.4678 3.3997,0 6.5894,0.39936 9.6205,1.2134 3.031,0.82432 5.8675,1.9712 8.4838,3.4714 1.4797,-0.20992 2.9952,-0.3584 4.4902,-0.47616 1.5155,-0.0922 3.031,-0.14848 4.5107,-0.14848 7.8797,0 15.278,1.3722 22.195,4.1011 6.9018,2.7085 12.943,6.4614 18.135,11.223 5.1917,4.7821 9.2826,10.317 12.252,16.614 2.9594,6.3078 4.439,13.076 4.439,20.285 0.005,2.6573 -0.24064,5.4374 -0.74752,8.3302 z m -29.164,16.394 c 2.4269,-3.1949 3.625,-6.9478 3.625,-11.259 0,-3.3946 -0.67584,-6.2464 -2.007,-8.5606 -1.3875,-2.304 -3.3434,-4.2342 -5.8675,-5.7754 -2.3194,-1.495 -5.335,-2.8211 -9.0266,-4.009 -3.712,-0.93184 -7.6493,-1.8432 -11.812,-2.775 l -4.5619,-1.0394 c -1.2237,-0.26112 -2.1965,-0.48128 -2.9286,-0.68096 -0.81408,-0.19968 -1.5667,-0.41984 -2.2835,-0.68096 -0.67584,-0.24064 -1.3926,-0.52224 -2.1094,-0.82944 -1.3926,-0.58368 -2.56,-1.3773 -3.4867,-2.3091 -0.7168,-0.80384 -1.0752,-1.8842 -1.0752,-3.2256 0,-1.961 1.1674,-3.712 3.4867,-5.2634 2.6266,-1.449 5.8368,-2.1453 9.6512,-2.0992 4.4083,0 7.5059,0.65024 9.2518,1.9558 2.1094,1.5462 3.7632,3.4509 4.9459,5.6986 1.0291,1.6486 2.0736,2.8774 3.1539,3.6864 1.0291,0.78848 2.4576,1.2134 4.2547,1.2698 2.0224,0 3.6966,-0.67072 5.1046,-2.0224 1.3773,-1.2595 2.0378,-2.6778 2.0019,-4.2752 0,-1.8483 -0.52224,-3.6659 -1.5462,-5.417 -1.0138,-1.6435 -2.7187,-3.3946 -5.0688,-5.2531 -1.1878,-0.79872 -2.4934,-1.5309 -3.9014,-2.2016 -1.4131,-0.67584 -3.0003,-1.2698 -4.7258,-1.7715 -1.8074,-0.49152 -3.7069,-0.8704 -5.7088,-1.1264 -2.007,-0.25088 -4.1984,-0.36864 -6.6253,-0.36864 -6.1133,0 -11.269,0.74752 -15.468,2.2426 -4.5107,1.5565 -7.9258,3.6966 -10.24,6.4717 -2.3142,2.6419 -3.4714,5.8163 -3.4714,9.5232 0,3.9014 1.1213,7.0758 3.3331,9.5232 2.2272,2.647 5.2429,4.649 9.0573,6.0058 3.625,1.449 8.2586,2.7187 13.942,3.8144 2.1248,0.50176 3.9834,0.92672 5.6269,1.2493 1.6179,0.31744 3.0874,0.68096 4.3725,1.0752 2.4218,0.66048 4.3878,1.7664 5.888,3.3382 1.6026,1.3619 2.4064,3.113 2.4064,5.2736 0,2.985 -1.4643,5.4016 -4.3571,7.2448 -2.7341,1.8893 -6.4307,2.8211 -11.085,2.7546 -3.7274,0 -6.4256,-0.43008 -8.1357,-1.3005 -2.1248,-0.96768 -3.6915,-2.1965 -4.7206,-3.6608 -1.3056,-1.6691 -2.3501,-3.5226 -3.1898,-5.5245 -0.73216,-1.8995 -1.7203,-3.3331 -3.0106,-4.3008 -1.2032,-0.97792 -2.6112,-1.4643 -4.265,-1.4643 -2.1094,0 -3.8502,0.5888 -5.2275,1.7459 -1.3773,1.3158 -2.0378,2.857 -2.007,4.5875 0,3.0157 1.1162,6.0314 3.328,9.0522 2.1965,3.1078 5.0176,5.5347 8.4531,7.2806 5.033,2.601 11.356,3.9168 18.954,3.968 6.2003,0 11.725,-0.9216 16.532,-2.7597 4.7206,-2.0941 8.2432,-4.6899 10.542,-7.808 z"
               fill="url(#linearGradient1056)"
               stroke-width="79.985"
               id="path968"
               style="fill:url(#linearGradient1056)" />
          </g>
        </g>
      </g>
    </g>
    <g
       id="g1085"
       transform="matrix(2.7168718,0,0,2.7168718,25.9781,153.57752)"
       inkscape:export-filename="/home/pexim/Documents/WEBSITES/essenceweb/g1004.png"
       inkscape:export-xdpi="96"
       inkscape:export-ydpi="96">
      <g
         transform="translate(-21.833,0.89722)"
         fill="#5e4aa6"
         stroke-width="0.26458"
         id="g1034">
        <circle
           cx="-330.35001"
           cy="-328.38"
           r="0"
           id="circle1026" />
        <circle
           cx="-312.10999"
           cy="-326.25"
           r="0"
           id="circle1028" />
        <circle
           cx="-306.01999"
           cy="-333.07001"
           r="0"
           id="circle1030" />
        <circle
           cx="-308.84"
           cy="-326.01001"
           r="0"
           id="circle1032" />
      </g>
      <rect
         x="1.1905"
         y="1.1905"
         width="14.552"
         height="14.552"
         ry="3.4395001"
         filter="url(#filter861)"
         opacity="0.3"
         stroke-opacity="0.95294"
         stroke-width="0.083153"
         id="rect1036"
         style="filter:url(#filter861-9)" />
      <rect
         x="1.1905"
         y="1.1905"
         width="14.552"
         height="14.552"
         ry="3.4395001"
         fill="url(#linearGradient1448)"
         stroke-opacity="0.95294"
         stroke-width="0.083153"
         id="rect1038"
         style="fill:url(#linearGradient1448-5)" />
      <g
         transform="matrix(0.063415,0,0,0.063368,1.2118,0.42469)"
         fill="#000096"
         filter="url(#filter1152)"
         image-rendering="optimizeSpeed"
         opacity="0.3"
         stroke-width="15.683"
         id="g1046">
        <path
           d="m 98,175 c -3.8876,0 -3.227,-1.4679 -4.5678,-5.1695 l -11.432,-37.625 88,-52.206"
           id="path1040" />
        <path
           d="m 98,175 c 3,0 4.3255,-1.372 6,-3 l 16,-15.558 -19.958,-12.035"
           id="path1042" />
        <path
           d="m 100.04,144.41 48.36,35.729 c 5.5185,3.0449 9.5014,1.4684 10.876,-5.1235 l 19.685,-92.763 c 2.0154,-8.0802 -3.0801,-11.745 -8.3594,-9.3482 l -115.59,44.571 c -7.8901,3.1647 -6.9241,9.4078 -0.51824,11.369 l 29.663,9.2583 67.753,-45.166 c 3.2419,-1.9659 6.2173,-0.90899 3.7752,1.2584"
           id="path1044" />
      </g>
      <g
         transform="matrix(0.015767,0,0,0.015767,0.76252,-0.040907)"
         image-rendering="optimizeSpeed"
         stroke-width="61.492"
         id="g1054">
        <path
           d="m 425.24,728.15 c -15.243,0 -12.653,-5.7554 -17.91,-20.269 l -44.824,-147.52 345.03,-204.69"
           fill="#cdf2fd"
           id="path1048" />
        <path
           d="m 425.24,728.15 c 11.762,0 16.96,-5.3794 23.525,-11.762 l 62.733,-61 -78.252,-47.187"
           fill="#ace6fb"
           id="path1050" />
        <path
           d="M 433.24,608.21 622.85,748.3 c 21.637,11.939 37.253,5.7574 42.643,-20.088 l 77.182,-363.71 c 7.902,-31.681 -12.077,-46.05 -32.776,-36.653 l -453.21,174.76 c -30.936,12.408 -30.755,29.667 -5.6389,37.358 l 116.3,36.3 269.26,-169.87 c 12.711,-7.708 24.377,-3.564 14.802,4.934"
           fill="url(#w)"
           id="path1052"
           style="fill:url(#w)" />
      </g>
    </g>
    <g
       style="image-rendering:optimizeSpeed"
       id="g1180"
       transform="matrix(0.71882482,0,0,0.71882482,86.359682,152.85862)"
       inkscape:export-filename="/home/pexim/Documents/WEBSITES/essenceweb/g1004.png"
       inkscape:export-xdpi="96"
       inkscape:export-ydpi="96">
      <g
         id="g40"
         shape-rendering="auto"
         transform="scale(3.7796)">
        <path
           id="path28"
           style="font-variant-ligatures:normal;font-variant-position:normal;font-variant-caps:normal;font-variant-numeric:normal;font-variant-alternates:normal;font-variant-east-asian:normal;font-feature-settings:normal;font-variation-settings:normal;text-indent:0;text-decoration:none;text-decoration-line:none;text-decoration-style:solid;text-decoration-color:#000000;text-transform:none;text-orientation:mixed;white-space:normal;shape-padding:0;shape-margin:0;inline-size:0;isolation:auto;mix-blend-mode:normal"
           stop-color="#000000"
           solid-color="#000000"
           opacity="0.01"
           image-rendering="auto"
           enable-background="accumulate"
           dominant-baseline="auto"
           color-rendering="auto"
           color="#000000"
           d="m 4.3693,0.52916 c -2.1142,0 -3.8402,1.7835 -3.8402,3.9682 v 8.4675 c 0,2.1846 1.726,3.9682 3.8402,3.9682 h 8.1944 c 2.1142,0 3.8402,-1.7835 3.8402,-3.9682 v -8.4675 c 0,-2.1846 -1.726,-3.9682 -3.8402,-3.9682 z m 0.25704,0.52089 h 7.6808 c 1.8443,0 3.3291,1.5342 3.3291,3.44 v 7.9368 c 0,1.9058 -1.4847,3.44 -3.3291,3.44 h -7.6808 c -1.8443,0 -3.3291,-1.5342 -3.3291,-3.44 v -7.9368 c 0,-1.9058 1.4847,-3.44 3.3291,-3.44 z" />
        <path
           id="path30"
           style="font-variant-ligatures:normal;font-variant-position:normal;font-variant-caps:normal;font-variant-numeric:normal;font-variant-alternates:normal;font-variant-east-asian:normal;font-feature-settings:normal;font-variation-settings:normal;text-indent:0;text-decoration:none;text-decoration-line:none;text-decoration-style:solid;text-decoration-color:#000000;text-transform:none;text-orientation:mixed;white-space:normal;shape-padding:0;shape-margin:0;inline-size:0;isolation:auto;mix-blend-mode:normal"
           stop-color="#000000"
           solid-color="#000000"
           opacity="0.01"
           image-rendering="auto"
           enable-background="accumulate"
           dominant-baseline="auto"
           color-rendering="auto"
           color="#000000"
           d="m 4.3587,0.79373 c -1.9668,0 -3.5639,1.6528 -3.5639,3.6876 v 8.4996 c 0,2.0348 1.5971,3.6876 3.5639,3.6876 h 8.2162 c 1.9668,0 3.5644,-1.6528 3.5644,-3.6876 v -8.4996 c 0,-2.0348 -1.5976,-3.6876 -3.5644,-3.6876 z m 0.27222,0.25631 h 7.6718 c 1.8422,0 3.3251,1.5342 3.3251,3.44 v 7.9368 c 0,1.9058 -1.483,3.44 -3.3251,3.44 h -7.6718 c -1.8422,0 -3.3251,-1.5342 -3.3251,-3.44 v -7.9368 c 0,-1.9058 1.483,-3.44 3.3251,-3.44 z" />
        <g
           id="g38">
          <path
             id="path32"
             style="font-variant-ligatures:normal;font-variant-position:normal;font-variant-caps:normal;font-variant-numeric:normal;font-variant-alternates:normal;font-variant-east-asian:normal;font-feature-settings:normal;font-variation-settings:normal;text-indent:0;text-decoration:none;text-decoration-line:none;text-decoration-style:solid;text-decoration-color:#000000;text-transform:none;text-orientation:mixed;white-space:normal;shape-padding:0;shape-margin:0;inline-size:0;isolation:auto;mix-blend-mode:normal"
             stop-color="#000000"
             solid-color="#000000"
             opacity="0.03"
             image-rendering="auto"
             enable-background="accumulate"
             dominant-baseline="auto"
             color-rendering="auto"
             color="#000000"
             d="m 4.3097,1.0583 c -1.8657,0 -3.3751,1.5383 -3.3751,3.439 v 8.4675 c 0,1.9007 1.57,3.439 3.4357,3.439 h 8.1996 c 1.8657,0 3.4274,-1.5383 3.4274,-3.439 V 4.4973 c 0,-1.9007 -1.51,-3.439 -3.3756,-3.439 h -0.09688 c 1.794,0.086515 3.2138,1.5819 3.2138,3.4318 v 7.9368 c 0,1.9058 -1.5059,3.44 -3.3766,3.44 h -7.7905 c -1.8707,0 -3.3766,-1.5342 -3.3766,-3.44 V 4.4901 c 0,-1.8498 1.4199,-3.3451 3.2138,-3.4318 z" />
          <path
             id="path34"
             style="font-variant-ligatures:normal;font-variant-position:normal;font-variant-caps:normal;font-variant-numeric:normal;font-variant-alternates:normal;font-variant-east-asian:normal;font-feature-settings:normal;font-variation-settings:normal;text-indent:0;text-decoration:none;text-decoration-line:none;text-decoration-style:solid;text-decoration-color:#000000;text-transform:none;text-orientation:mixed;white-space:normal;shape-padding:0;shape-margin:0;inline-size:0;isolation:auto;mix-blend-mode:normal"
             stop-color="#000000"
             solid-color="#000000"
             opacity="0.03"
             image-rendering="auto"
             enable-background="accumulate"
             dominant-baseline="auto"
             color-rendering="auto"
             color="#000000"
             d="m 4,46.969 v 2.0312 c 0,6.6479 5.8957,12 12.544,12 h 30.961 c 6.6479,0 12.495,-5.3521 12.495,-12 V 47.008 C 59.97883,54.1929 54.19,59.971 47,59.971 H 17.002 C 9.7988,59.971 4,54.1723 4,46.969 Z"
             transform="scale(0.26458)" />
          <path
             id="path36"
             style="font-variant-ligatures:normal;font-variant-position:normal;font-variant-caps:normal;font-variant-numeric:normal;font-variant-alternates:normal;font-variant-east-asian:normal;font-feature-settings:normal;font-variation-settings:normal;text-indent:0;text-decoration:none;text-decoration-line:none;text-decoration-style:solid;text-decoration-color:#000000;text-transform:none;text-orientation:mixed;white-space:normal;shape-padding:0;shape-margin:0;inline-size:0;isolation:auto;mix-blend-mode:normal"
             stop-color="#000000"
             solid-color="#000000"
             opacity="0.05"
             image-rendering="auto"
             enable-background="accumulate"
             dominant-baseline="auto"
             color-rendering="auto"
             color="#000000"
             d="m 1.0583,11.906 v 0.59234 c 0,1.9386 1.5729,3.4993 3.3318,3.4993 h 8.1603 c 1.7589,0 3.3243,-1.5608 3.3243,-3.4993 v -0.58095 c -0.0056,2.0952 -1.5372,3.7801 -3.4395,3.7801 H 4.4984 c -1.9058,0 -3.44,-1.691 -3.44,-3.7915 z" />
        </g>
      </g>
      <rect
         style="fill:url(#linearGradient7696);fill-opacity:1;stroke-width:3.78;stroke-miterlimit:4;stroke-dasharray:none"
         id="rect42"
         stroke-width="3.7795"
         fill="url(#linearGradient862-3)"
         ry="13.002"
         rx="13.002"
         height="56"
         width="56"
         y="4"
         x="4" />
      <path
         transform="matrix(3.2385251,0,0,3.2385251,4.581009,5.5811289)"
         d="m 9.1933,4.2333 c -0.18593,0 -0.34023,0.14851 -0.342,0.32847 -0.00108,0.18078 0.15324,0.3328 0.3405,0.33373 0.80813,0.00607 1.4726,0.26148 2.0084,0.76518 0.5295,0.49902 0.80551,1.1904 0.81251,2.0926 v 7.697e-4 c 0.0019,0.17947 0.15633,0.3277 0.34275,0.3277 1.8e-5,0 0.0035,-6.926e-4 0.0038,-7.696e-4 0.18684,-0.00173 0.34201,-0.15236 0.3405,-0.33298 v -7.697e-4 c -0.0044,-0.52585 -0.08987,-1.0093 -0.25711,-1.4348 -0.16925,-0.42991 -0.42652,-0.81032 -0.76218,-1.1267 -0.66289,-0.6234 -1.5097,-0.94544 -2.4842,-0.95233 H 9.19318 Z M 5.7222,5.01126 C 5.59181,4.989097 5.45058,5.01334 5.30953,5.081163 h -0.0112 l -0.015782,0.00902 c -0.26136,0.14856 -0.50638,0.34774 -0.73586,0.59754 L 4.528651,5.707265 v 0.018038 c -0.15878,0.19796 -0.26373,0.39719 -0.28788,0.59681 -0.00771,0.033827 -0.00757,0.064322 -0.00757,0.096965 0,0.090807 0.013382,0.18309 0.041338,0.2736 l 0.00757,0.025558 0.015782,0.00902 c 0.090647,0.31099 0.29633,0.79496 0.7464,1.6145 0.29976,0.5432 0.60605,0.99697 0.91023,1.3793 0.16024,0.20093 0.34177,0.41012 0.55244,0.62086 0.00247,0.0025 0.011349,0.01158 0.021047,0.0203 0.00335,0.0033 0.008,0.01029 0.019535,0.02179 l 0.021047,0.02105 h 0.00145 c 0.00742,0.0074 0.012363,0.0128 0.013527,0.01429 l 0.00378,0.0045 0.00378,0.0038 c 0.21069,0.20839 0.41849,0.391 0.62161,0.55021 0.38172,0.30422 0.83537,0.61294 1.3785,0.91323 0.82048,0.45265 1.309,0.65723 1.6183,0.7464 l 0.01132,0.01353 0.01879,0.0067 c 0.08762,0.02921 0.17881,0.04271 0.26909,0.04134 0.03662,0.0021 0.06903,-5.77e-4 0.09996,-0.0075 0.21185,-0.02478 0.42159,-0.12508 0.62914,-0.29915 l 0.0023,-0.0031 0.0023,-0.0015 c 0.0032,-0.0032 0.0013,-0.0016 0.0031,-0.0038 0.0019,-0.0016 0.0026,-0.0037 0.0045,-0.0053 0.24564,-0.22417 0.44389,-0.468 0.59305,-0.72908 l 0.0097,-0.01654 v -0.01567 c 0.13716,-0.28529 0.08291,-0.57654 -0.13964,-0.76218 -0.0054,-0.0047 -0.11238,-0.09406 -0.24504,-0.20219 -0.13601,-0.1104 -0.2969,-0.24035 -0.40554,-0.32006 -0.20554,-0.15205 -0.52323,-0.34872 -0.7043,-0.44949 h -7.69e-4 c -0.3478,-0.19485 -0.71122,-0.081654 -0.87116,0.12545 l -0.28036,0.35102 c -0.11306,0.14247 -0.33901,0.12888 -0.345,0.12853 -1.9017,-0.48925 -2.4129,-2.4014 -2.4165,-2.415 -3.388e-4,-0.00598 -0.013964,-0.23232 0.12852,-0.34726 l 0.34951,-0.27961 c 0.20761,-0.15901 0.32433,-0.52238 0.12853,-0.87116 -0.10214,-0.18031 -0.29966,-0.50037 -0.44949,-0.7043 h -7.694e-4 c -0.08032,-0.10824 -0.20986,-0.27009 -0.3202,-0.40589 -0.055171,-0.067897 -0.1054,-0.13004 -0.14207,-0.17438 -0.018342,-0.02217 -0.033077,-0.040077 -0.043593,-0.052615 -0.00523,-0.00627 -0.00975,-0.010674 -0.0128,-0.014283 -0.0016,-0.00181 -0.00247,-0.00299 -0.00378,-0.00451 -0.096874,-0.11502 -0.22033,-0.18509 -0.35629,-0.20821 z M 9.2136,5.77344 C 9.03021,5.760509 8.86543,5.89792 8.85206,6.07485 c -0.013382,0.17712 0.1295,0.3351 0.31268,0.34801 0.453,0.032015 0.75868,0.16519 0.98843,0.40812 v 7.696e-4 c 0.23448,0.24745 0.34116,0.53004 0.33223,0.91627 v 0.0015 c -0.0039,0.17771 0.14509,0.32832 0.32922,0.33221 h 0.0083 c 0.18144,0 0.3327,-0.14323 0.33673,-0.31869 0.01235,-0.53081 -0.16049,-1.0045 -0.50888,-1.3718 -0.34998,-0.36912 -0.8458,-0.57584 -1.4371,-0.61786 z"
         fill="#000000"
         filter="url(#filter907)"
         opacity="0.15"
         stroke-width="0.38484"
         id="path24" />
      <path
         style="fill:url(#linearGradient4152)"
         d="m 34.353741,19.290778 c -0.602138,0 -1.101843,0.480953 -1.107575,1.063757 -0.0035,0.585461 0.496272,1.077782 1.102718,1.080794 2.617149,0.01966 4.769052,0.846809 6.504254,2.478055 1.714799,1.616088 2.608664,3.85514 2.631334,6.776937 v 0.0025 c 0.0062,0.581218 0.506278,1.061265 1.110004,1.061265 5.9e-5,0 0.01134,-0.0022 0.0123,-0.0025 0.605086,-0.0056 1.107608,-0.493421 1.102718,-1.078364 v -0.0025 c -0.01425,-1.702986 -0.291045,-3.268651 -0.832656,-4.646644 -0.54812,-1.392274 -1.381296,-2.624241 -2.468339,-3.648846 -2.146786,-2.018896 -4.889201,-3.061831 -8.045144,-3.084144 h -0.01001 z m -11.241244,2.519443 c -0.422271,-0.07178 -0.879648,0.0068 -1.336442,0.226382 h -0.03627 l -0.05111,0.02921 c -0.846421,0.481115 -1.639924,1.126165 -2.383102,1.935148 l -0.05841,0.06329 v 0.05842 c -0.514212,0.641099 -0.854096,1.28631 -0.932306,1.932784 -0.02497,0.10955 -0.02451,0.208309 -0.02451,0.314024 0,0.294081 0.04334,0.592942 0.133875,0.886061 l 0.02451,0.08277 0.05111,0.02921 c 0.293562,1.007148 0.959672,2.574497 2.417235,5.228598 0.97078,1.759167 1.962709,3.228713 2.947803,4.466898 0.518941,0.650717 1.10683,1.328184 1.789091,2.010671 0.008,0.0081 0.03676,0.0375 0.06816,0.06574 0.01085,0.01069 0.02591,0.03332 0.06326,0.07057 l 0.06816,0.06817 h 0.0047 c 0.02402,0.02397 0.04004,0.04145 0.04381,0.04628 l 0.01224,0.01457 0.01225,0.0123 c 0.682325,0.674876 1.35529,1.266263 2.0131,1.781869 1.236209,0.985223 2.705366,1.985021 4.464306,2.957518 2.657145,1.465919 4.23923,2.128456 5.240905,2.417235 l 0.03666,0.04382 0.06085,0.02169 c 0.283759,0.0946 0.57908,0.138318 0.871454,0.133881 0.118595,0.0068 0.223556,-0.0019 0.323723,-0.02429 0.686081,-0.08025 1.36533,-0.405075 2.037486,-0.968805 l 0.0075,-0.01004 0.0075,-0.0049 c 0.01036,-0.01036 0.0042,-0.0051 0.01004,-0.0123 0.0062,-0.0051 0.0084,-0.01198 0.01458,-0.01716 0.795511,-0.72598 1.437549,-1.515629 1.920608,-2.361144 l 0.03141,-0.05356 v -0.05075 c 0.444195,-0.923918 0.268506,-1.867139 -0.452228,-2.468339 -0.01749,-0.01522 -0.363945,-0.304615 -0.793568,-0.654797 -0.440472,-0.357534 -0.961518,-0.77838 -1.313352,-1.036522 -0.665647,-0.492419 -1.694493,-1.129339 -2.280893,-1.455685 h -0.0025 c -1.126359,-0.631027 -2.303304,-0.264439 -2.821274,0.406273 l -0.907953,1.136787 c -0.366148,0.461393 -1.097893,0.417381 -1.117291,0.416248 -6.158704,-1.584448 -7.814237,-7.776994 -7.825896,-7.821039 -0.0011,-0.01936 -0.04522,-0.752374 0.416216,-1.12461 l 1.131896,-0.905524 c 0.672351,-0.514958 1.050351,-1.691741 0.416248,-2.821273 -0.330783,-0.583939 -0.970457,-1.620461 -1.455685,-2.280894 h -0.0025 c -0.260118,-0.350538 -0.679637,-0.874693 -1.036975,-1.314484 -0.178673,-0.219886 -0.341341,-0.421138 -0.460097,-0.564734 -0.0594,-0.0718 -0.107121,-0.129791 -0.141177,-0.170395 -0.01694,-0.02031 -0.03158,-0.03457 -0.04145,-0.04625 -0.0051,-0.0058 -0.008,-0.0097 -0.01225,-0.01461 C 23.952216,22.112038 23.5524,21.885114 23.11209,21.81024 Z m 11.306986,2.468339 c -0.593912,-0.04187 -1.127557,0.403131 -1.170856,0.976124 -0.04334,0.573607 0.41939,1.085229 1.012622,1.127039 1.467053,0.103681 2.457004,0.534971 3.201056,1.321706 v 0.0025 c 0.759369,0.801373 1.104855,1.716548 1.075935,2.967364 v 0.0049 c -0.01263,0.575518 0.469878,1.063272 1.066187,1.07587 h 0.02688 c 0.587598,0 1.077457,-0.463854 1.090509,-1.032086 0.04,-1.719041 -0.519751,-3.253098 -1.648021,-4.442608 -1.133419,-1.195404 -2.739144,-1.864873 -4.654084,-2.000956 z"
         fill="url(#linearGradient4152)"
         stroke-width="1.24631"
         id="path26" />
    </g>
    <g
       id="g1230"
       transform="matrix(0.71882482,0,0,0.71882482,146.74125,152.85862)"
       inkscape:export-filename="/home/pexim/Documents/WEBSITES/essenceweb/g1004.png"
       inkscape:export-xdpi="96"
       inkscape:export-ydpi="96">
      <g
         transform="scale(3.7796)"
         shape-rendering="auto"
         id="g1202">
        <path
           d="m 4.3693,0.52916 c -2.1142,0 -3.8402,1.7835 -3.8402,3.9682 v 8.4675 c 0,2.1846 1.726,3.9682 3.8402,3.9682 h 8.1944 c 2.1142,0 3.8402,-1.7835 3.8402,-3.9682 v -8.4675 c 0,-2.1846 -1.726,-3.9682 -3.8402,-3.9682 z m 0.25704,0.52089 h 7.6808 c 1.8443,0 3.3291,1.5342 3.3291,3.44 v 7.9368 c 0,1.9058 -1.4847,3.44 -3.3291,3.44 h -7.6808 c -1.8443,0 -3.3291,-1.5342 -3.3291,-3.44 v -7.9368 c 0,-1.9058 1.4847,-3.44 3.3291,-3.44 z"
           color="#000000"
           color-rendering="auto"
           dominant-baseline="auto"
           image-rendering="auto"
           opacity="0.01"
           solid-color="#000000"
           stop-color="#000000"
           style="font-variant-ligatures:normal;font-variant-position:normal;font-variant-caps:normal;font-variant-numeric:normal;font-variant-alternates:normal;font-variant-east-asian:normal;font-feature-settings:normal;font-variation-settings:normal;text-indent:0;text-decoration:none;text-decoration-line:none;text-decoration-style:solid;text-decoration-color:#000000;text-transform:none;text-orientation:mixed;white-space:normal;shape-padding:0;shape-margin:0;inline-size:0;isolation:auto;mix-blend-mode:normal"
           id="path1192" />
        <path
           d="m 4.3587,0.79373 c -1.9668,0 -3.5639,1.6528 -3.5639,3.6876 v 8.4996 c 0,2.0348 1.5971,3.6876 3.5639,3.6876 h 8.2162 c 1.9668,0 3.5644,-1.6528 3.5644,-3.6876 v -8.4996 c 0,-2.0348 -1.5976,-3.6876 -3.5644,-3.6876 z m 0.27222,0.25631 h 7.6718 c 1.8422,0 3.3251,1.5342 3.3251,3.44 v 7.9368 c 0,1.9058 -1.483,3.44 -3.3251,3.44 h -7.6718 c -1.8422,0 -3.3251,-1.5342 -3.3251,-3.44 v -7.9368 c 0,-1.9058 1.483,-3.44 3.3251,-3.44 z"
           color="#000000"
           color-rendering="auto"
           dominant-baseline="auto"
           image-rendering="auto"
           opacity="0.01"
           solid-color="#000000"
           stop-color="#000000"
           style="font-variant-ligatures:normal;font-variant-position:normal;font-variant-caps:normal;font-variant-numeric:normal;font-variant-alternates:normal;font-variant-east-asian:normal;font-feature-settings:normal;font-variation-settings:normal;text-indent:0;text-decoration:none;text-decoration-line:none;text-decoration-style:solid;text-decoration-color:#000000;text-transform:none;text-orientation:mixed;white-space:normal;shape-padding:0;shape-margin:0;inline-size:0;isolation:auto;mix-blend-mode:normal"
           id="path1194" />
        <path
           d="m 4.3097,1.0583 c -1.8657,0 -3.3751,1.5383 -3.3751,3.439 v 8.4675 c 0,1.9007 1.57,3.439 3.4357,3.439 h 8.1996 c 1.8657,0 3.4274,-1.5383 3.4274,-3.439 V 4.4973 c 0,-1.9007 -1.51,-3.439 -3.3756,-3.439 h -0.09688 c 1.794,0.086515 3.2138,1.5819 3.2138,3.4318 v 7.9368 c 0,1.9058 -1.5059,3.44 -3.3766,3.44 h -7.7905 c -1.8707,0 -3.3766,-1.5342 -3.3766,-3.44 V 4.4901 c 0,-1.8498 1.4199,-3.3451 3.2138,-3.4318 z"
           color="#000000"
           color-rendering="auto"
           dominant-baseline="auto"
           image-rendering="auto"
           opacity="0.03"
           solid-color="#000000"
           stop-color="#000000"
           style="font-variant-ligatures:normal;font-variant-position:normal;font-variant-caps:normal;font-variant-numeric:normal;font-variant-alternates:normal;font-variant-east-asian:normal;font-feature-settings:normal;font-variation-settings:normal;text-indent:0;text-decoration:none;text-decoration-line:none;text-decoration-style:solid;text-decoration-color:#000000;text-transform:none;text-orientation:mixed;white-space:normal;shape-padding:0;shape-margin:0;inline-size:0;isolation:auto;mix-blend-mode:normal"
           id="path1196" />
        <path
           transform="scale(0.26458)"
           d="m 4,46.969 v 2.0312 c 0,6.6479 5.8957,12 12.544,12 h 30.961 c 6.6479,0 12.495,-5.3521 12.495,-12 V 47.008 C 59.97883,54.1929 54.19,59.971 47,59.971 H 17.002 C 9.7988,59.971 4,54.1723 4,46.969 Z"
           color="#000000"
           color-rendering="auto"
           dominant-baseline="auto"
           image-rendering="auto"
           opacity="0.03"
           solid-color="#000000"
           stop-color="#000000"
           style="font-variant-ligatures:normal;font-variant-position:normal;font-variant-caps:normal;font-variant-numeric:normal;font-variant-alternates:normal;font-variant-east-asian:normal;font-feature-settings:normal;font-variation-settings:normal;text-indent:0;text-decoration:none;text-decoration-line:none;text-decoration-style:solid;text-decoration-color:#000000;text-transform:none;text-orientation:mixed;white-space:normal;shape-padding:0;shape-margin:0;inline-size:0;isolation:auto;mix-blend-mode:normal"
           id="path1198" />
        <path
           d="m 1.0583,11.906 v 0.59234 c 0,1.9386 1.5729,3.4993 3.3318,3.4993 h 8.1603 c 1.7589,0 3.3243,-1.5608 3.3243,-3.4993 v -0.58095 c -0.0056,2.0952 -1.5372,3.7801 -3.4395,3.7801 H 4.4984 c -1.9058,0 -3.44,-1.691 -3.44,-3.7915 z"
           color="#000000"
           color-rendering="auto"
           dominant-baseline="auto"
           image-rendering="auto"
           opacity="0.05"
           solid-color="#000000"
           stop-color="#000000"
           style="font-variant-ligatures:normal;font-variant-position:normal;font-variant-caps:normal;font-variant-numeric:normal;font-variant-alternates:normal;font-variant-east-asian:normal;font-feature-settings:normal;font-variation-settings:normal;text-indent:0;text-decoration:none;text-decoration-line:none;text-decoration-style:solid;text-decoration-color:#000000;text-transform:none;text-orientation:mixed;white-space:normal;shape-padding:0;shape-margin:0;inline-size:0;isolation:auto;mix-blend-mode:normal"
           id="path1200" />
      </g>
      <rect
         x="4"
         y="3.9686"
         width="56.001999"
         height="56.001999"
         rx="13.002"
         ry="13.002"
         fill="url(#linearGradient862-3)"
         stroke-width="3.7796"
         id="rect1204"
         style="fill:url(#linearGradient862-3-6)" />
      <path
         d="M 17.166,23 C 15.9657,23 15,23.95547 15,25.1426 v 12.143 c 0,3.1656 2.5765,5.7148 5.7773,5.7148 h 18.057 c 1.2003,0 2.166,-0.95547 2.166,-2.1426 V 28.7148 C 41.0003,25.5492 38.4238,23 35.223,23 H 20.778 Z m 31.564,0.0039 c -0.42486,-0.03143 -0.90846,0.17568 -1.3691,0.63477 -1.6201,1.6144 -3.5196,2.9767 -4.8477,4.9062 -0.54689,0.7946 -0.50937,1.8466 -0.51367,2.8359 -0.0024,0.54283 0.0028,1.0835 0,1.6191 0.0028,0.53569 -0.0024,1.0763 0,1.6191 0.0043,0.98936 -0.03322,2.0413 0.51367,2.8359 1.328,1.9296 3.2276,3.2918 4.8477,4.9062 0.46068,0.45908 0.94428,0.66619 1.3691,0.63477 0.70809,-0.05239 1.252,-0.77105 1.252,-2.1035 0,-2.6086 0.0382,-5.2482 0,-7.8926 0.0382,-2.6443 0,-5.284 0,-7.8926 0,-1.3325 -0.54386,-2.0511 -1.252,-2.1035 z"
         filter="url(#filter981)"
         opacity="0.15"
         id="path1206" />
      <path
         d="M 17.166,22 C 15.9657,22 15,22.95547 15,24.1426 v 12.143 c 0,3.1656 2.5765,5.7148 5.7773,5.7148 h 18.057 c 1.2003,0 2.166,-0.95547 2.166,-2.1426 V 27.7148 C 41.0003,24.5492 38.4238,22 35.223,22 H 20.778 Z m 31.564,0.0039 c -0.42486,-0.03143 -0.90846,0.17568 -1.3691,0.63477 -1.6201,1.6144 -3.5196,2.9767 -4.8477,4.9062 -0.54689,0.7946 -0.50937,1.8466 -0.51367,2.8359 -0.0024,0.54283 0.0028,1.0835 0,1.6191 0.0028,0.53569 -0.0024,1.0763 0,1.6191 0.0043,0.98936 -0.03322,2.0413 0.51367,2.8359 1.328,1.9296 3.2276,3.2918 4.8477,4.9062 0.46068,0.45908 0.94428,0.66619 1.3691,0.63477 0.70809,-0.05239 1.252,-0.77105 1.252,-2.1035 0,-2.6086 0.0382,-5.2482 0,-7.8926 0.0382,-2.6443 0,-5.284 0,-7.8926 0,-1.3325 -0.54386,-2.0511 -1.252,-2.1035 z"
         fill="#ffffff"
         id="path1208" />
    </g>
    <path
       id="path913"
       style="fill:#71c837;fill-opacity:1;stroke:none;stroke-width:0.204576px;stroke-linecap:butt;stroke-linejoin:miter;stroke-opacity:1"
       d="m 106.52899,26.953981 -0.48711,-11.618423 -12.897671,-0.04346 -1.806454,-5.6258068 -5.770944,-0.065489 1.732257,6.966752 4.218354,-0.711338 0.212049,10.992134 2.446195,0.01744 a 4.9852426,4.9460933 2.5705521 0 1 0.01608,-0.08208 4.9852426,4.9460933 2.5705521 0 1 0.0173,-0.08281 4.9852426,4.9460933 2.5705521 0 1 0.01897,-0.08234 4.9852426,4.9460933 2.5705521 0 1 0.02048,-0.08187 4.9852426,4.9460933 2.5705521 0 1 0.0217,-0.08142 4.9852426,4.9460933 2.5705521 0 1 0.02292,-0.08138 4.9852426,4.9460933 2.5705521 0 1 0.02443,-0.08089 4.9852426,4.9460933 2.5705521 0 1 0.02594,-0.08042 4.9852426,4.9460933 2.5705521 0 1 0.02716,-0.07998 4.9852426,4.9460933 2.5705521 0 1 0.02883,-0.07951 4.9852426,4.9460933 2.5705521 0 1 0.02989,-0.07905 4.9852426,4.9460933 2.5705521 0 1 0.03156,-0.07817 4.9852426,4.9460933 2.5705521 0 1 0.03278,-0.07812 4.9852426,4.9460933 2.5705521 0 1 0.03383,-0.07728 4.9852426,4.9460933 2.5705521 0 1 0.03551,-0.07681 4.9852426,4.9460933 2.5705521 0 1 0.03656,-0.07595 4.9852426,4.9460933 2.5705521 0 1 0.03778,-0.0755 4.9852426,4.9460933 2.5705521 0 1 0.0393,-0.07502 4.9852426,4.9460933 2.5705521 0 1 0.04051,-0.07418 4.9852426,4.9460933 2.5705521 0 1 0.04203,-0.0733 4.9852426,4.9460933 2.5705521 0 1 0.04279,-0.07286 4.9852426,4.9460933 2.5705521 0 1 0.04447,-0.072 4.9852426,4.9460933 2.5705521 0 1 0.04567,-0.07156 4.9852426,4.9460933 2.5705521 0 1 0.04674,-0.07031 4.9852426,4.9460933 2.5705521 0 1 0.04795,-0.06984 4.9852426,4.9460933 2.5705521 0 1 0.04902,-0.06858 4.9852426,4.9460933 2.5705521 0 1 0.05069,-0.06812 4.9852426,4.9460933 2.5705521 0 1 0.05144,-0.06728 4.9852426,4.9460933 2.5705521 0 1 0.0525,-0.06603 4.9852426,4.9460933 2.5705521 0 1 0.05372,-0.06558 4.9852426,4.9460933 2.5705521 0 1 0.05493,-0.06434 4.9852426,4.9460933 2.5705521 0 1 0.05599,-0.06348 4.9852426,4.9460933 2.5705521 0 1 0.0572,-0.06263 4.9852426,4.9460933 2.5705521 0 1 0.05842,-0.06137 4.9852426,4.9460933 2.5705521 0 1 0.05917,-0.06054 4.9852426,4.9460933 2.5705521 0 1 0.06024,-0.05969 4.9852426,4.9460933 2.5705521 0 1 0.061,-0.05845 4.9852426,4.9460933 2.5705521 0 1 0.06252,-0.05758 4.9852426,4.9460933 2.5705521 0 1 0.06297,-0.05637 4.9852426,4.9460933 2.5705521 0 1 0.06449,-0.0555 4.9852426,4.9460933 2.5705521 0 1 0.06525,-0.05428 4.9852426,4.9460933 2.5705521 0 1 0.066,-0.05304 4.9852426,4.9460933 2.5705521 0 1 0.06707,-0.05179 4.9852426,4.9460933 2.5705521 0 1 0.06782,-0.05095 4.9852426,4.9460933 2.5705521 0 1 0.06859,-0.04973 4.9852426,4.9460933 2.5705521 0 1 0.06934,-0.04848 4.9852426,4.9460933 2.5705521 0 1 0.07056,-0.04763 4.9852426,4.9460933 2.5705521 0 1 0.07132,-0.04599 4.9852426,4.9460933 2.5705521 0 1 0.07192,-0.04476 4.9852426,4.9460933 2.5705521 0 1 0.07283,-0.04393 4.9852426,4.9460933 2.5705521 0 1 0.07345,-0.04228 4.9852426,4.9460933 2.5705521 0 1 0.0742,-0.04147 4.9852426,4.9460933 2.5705521 0 1 0.07495,-0.03983 4.9852426,4.9460933 2.5705521 0 1 0.07526,-0.03861 4.9852426,4.9460933 2.5705521 0 1 0.07647,-0.03735 4.9852426,4.9460933 2.5705521 0 1 0.07678,-0.03615 4.9852426,4.9460933 2.5705521 0 1 0.07753,-0.03491 4.9852426,4.9460933 2.5705521 0 1 0.07784,-0.03329 4.9852426,4.9460933 2.5705521 0 1 0.07905,-0.03205 4.9852426,4.9460933 2.5705521 0 1 0.0789,-0.03085 4.9852426,4.9460933 2.5705521 0 1 0.07965,-0.02962 4.9852426,4.9460933 2.5705521 0 1 0.08012,-0.02799 4.9852426,4.9460933 2.5705521 0 1 0.08087,-0.02678 4.9852426,4.9460933 2.5705521 0 1 0.08118,-0.02556 4.9852426,4.9460933 2.5705521 0 1 0.08148,-0.02394 4.9852426,4.9460933 2.5705521 0 1 0.08224,-0.02232 4.9852426,4.9460933 2.5705521 0 1 0.08208,-0.02152 4.9852426,4.9460933 2.5705521 0 1 0.08285,-0.01989 4.9852426,4.9460933 2.5705521 0 1 0.08285,-0.01828 4.9852426,4.9460933 2.5705521 0 1 0.0836,-0.01705 4.9852426,4.9460933 2.5705521 0 1 0.08345,-0.01546 4.9852426,4.9460933 2.5705521 0 1 0.0839,-0.01427 4.9852426,4.9460933 2.5705521 0 1 0.08422,-0.01259 4.9852426,4.9460933 2.5705521 0 1 0.08405,-0.01138 4.9852426,4.9460933 2.5705521 0 1 0.08482,-0.0099 4.9852426,4.9460933 2.5705521 0 1 0.08437,-0.0087 4.9852426,4.9460933 2.5705521 0 1 0.08512,-0.0069 4.9852426,4.9460933 2.5705521 0 1 0.08467,-0.0058 4.9852426,4.9460933 2.5705521 0 1 0.08497,-0.0038 4.9852426,4.9460933 2.5705521 0 1 0.08497,-0.003 4.9852426,4.9460933 2.5705521 0 1 0.08527,-0.0014 4.9852426,4.9460933 2.5705521 0 1 0.08513,1.82e-4 4.9852426,4.9460933 2.5705521 0 1 0.08512,0.0019 4.9852426,4.9460933 2.5705521 0 1 0.08512,0.0029 4.9852426,4.9460933 2.5705521 0 1 0.003,1.37e-4 4.9852426,4.9460933 2.5705521 0 1 0.08467,0.0047 4.9852426,4.9460933 2.5705521 0 1 0.08497,0.0058 4.9852426,4.9460933 2.5705521 0 1 0.08482,0.0075 4.9852426,4.9460933 2.5705521 0 1 0.08482,0.009 4.9852426,4.9460933 2.5705521 0 1 0.08437,0.01017 4.9852426,4.9460933 2.5705521 0 1 0.08421,0.01184 4.9852426,4.9460933 2.5705521 0 1 0.08421,0.0129 4.9852426,4.9460933 2.5705521 0 1 0.08376,0.01457 4.9852426,4.9460933 2.5705521 0 1 0.0836,0.01616 4.9852426,4.9460933 2.5705521 0 1 0.0832,0.01735 4.9852426,4.9460933 2.5705521 0 1 0.0827,0.01853 4.9852426,4.9460933 2.5705521 0 1 0.0827,0.0205 4.9852426,4.9460933 2.5705521 0 1 0.0822,0.02129 4.9852426,4.9460933 2.5705521 0 1 0.0821,0.02328 4.9852426,4.9460933 2.5705521 0 1 0.0813,0.02405 4.9852426,4.9460933 2.5705521 0 1 0.0812,0.02605 4.9852426,4.9460933 2.5705521 0 1 0.0804,0.02681 4.9852426,4.9460933 2.5705521 0 1 0.0803,0.02882 4.9852426,4.9460933 2.5705521 0 1 0.0795,0.02957 4.9852426,4.9460933 2.5705521 0 1 0.0791,0.03115 4.9852426,4.9460933 2.5705521 0 1 0.0786,0.03273 4.9852426,4.9460933 2.5705521 0 1 0.0781,0.0335 4.9852426,4.9460933 2.5705521 0 1 0.0775,0.03548 4.9852426,4.9460933 2.5705521 0 1 0.0768,0.03624 4.9852426,4.9460933 2.5705521 0 1 0.0759,0.0378 4.9852426,4.9460933 2.5705521 0 1 0.0754,0.03898 4.9852426,4.9460933 2.5705521 0 1 0.075,0.04016 4.9852426,4.9460933 2.5705521 0 1 0.0742,0.04173 4.9852426,4.9460933 2.5705521 0 1 0.0733,0.04288 4.9852426,4.9460933 2.5705521 0 1 0.0728,0.04407 4.9852426,4.9460933 2.5705521 0 1 0.0716,0.04522 4.9852426,4.9460933 2.5705521 0 1 0.0712,0.04638 4.9852426,4.9460933 2.5705521 0 1 0.0703,0.04755 4.9852426,4.9460933 2.5705521 0 1 0.0693,0.04871 4.9852426,4.9460933 2.5705521 0 1 0.0686,0.05028 4.9852426,4.9460933 2.5705521 0 1 0.0677,0.05103 4.9852426,4.9460933 2.5705521 0 1 0.0669,0.0522 4.9852426,4.9460933 2.5705521 0 1 0.066,0.05376 4.9852426,4.9460933 2.5705521 0 1 0.0651,0.05452 4.9852426,4.9460933 2.5705521 0 1 0.0639,0.05526 4.9852426,4.9460933 2.5705521 0 1 0.063,0.05682 4.9852426,4.9460933 2.5705521 0 1 0.0622,0.05798 4.9852426,4.9460933 2.5705521 0 1 0.061,0.05873 4.9852426,4.9460933 2.5705521 0 1 0.0601,0.05989 4.9852426,4.9460933 2.5705521 0 1 0.0593,0.06066 4.9852426,4.9460933 2.5705521 0 1 0.0577,0.06177 4.9852426,4.9460933 2.5705521 0 1 0.0572,0.06297 4.9852426,4.9460933 2.5705521 0 1 0.056,0.06372 4.9852426,4.9460933 2.5705521 0 1 0.0546,0.06446 4.9852426,4.9460933 2.5705521 0 1 0.0534,0.066 4.9852426,4.9460933 2.5705521 0 1 0.0526,0.06636 4.9852426,4.9460933 2.5705521 0 1 0.051,0.06749 4.9852426,4.9460933 2.5705521 0 1 0.0501,0.06825 4.9852426,4.9460933 2.5705521 0 1 0.0493,0.06901 4.9852426,4.9460933 2.5705521 0 1 0.0476,0.06972 4.9852426,4.9460933 2.5705521 0 1 0.0464,0.07087 4.9852426,4.9460933 2.5705521 0 1 0.0457,0.07124 4.9852426,4.9460933 2.5705521 0 1 0.044,0.07236 4.9852426,4.9460933 2.5705521 0 1 0.0426,0.07313 4.9852426,4.9460933 2.5705521 0 1 0.0419,0.07347 4.9852426,4.9460933 2.5705521 0 1 0.0402,0.0742 4.9852426,4.9460933 2.5705521 0 1 0.039,0.07533 4.9852426,4.9460933 2.5705521 0 1 0.0378,0.07568 4.9852426,4.9460933 2.5705521 0 1 0.0363,0.07602 4.9852426,4.9460933 2.5705521 0 1 0.0354,0.07717 4.9852426,4.9460933 2.5705521 0 1 0.0337,0.07751 4.9852426,4.9460933 2.5705521 0 1 0.0325,0.07785 4.9852426,4.9460933 2.5705521 0 1 0.0308,0.07856 4.9852426,4.9460933 2.5705521 0 1 0.03,0.07935 4.9852426,4.9460933 2.5705521 0 1 0.0281,0.07966 4.9852426,4.9460933 2.5705521 0 1 0.0272,0.08001 4.9852426,4.9460933 2.5705521 0 1 0.0256,0.08035 4.9852426,4.9460933 2.5705521 0 1 0.0244,0.08109 4.9852426,4.9460933 2.5705521 0 1 0.0228,0.08142 4.9852426,4.9460933 2.5705521 0 1 0.0215,0.08176 4.9852426,4.9460933 2.5705521 0 1 0.0199,0.08169 4.9852426,4.9460933 2.5705521 0 1 0.0186,0.08244 4.9852426,4.9460933 2.5705521 0 1 0.0171,0.08276 4.9852426,4.9460933 2.5705521 0 1 0.0158,0.08311 4.9852426,4.9460933 2.5705521 0 1 0.007,0.04715 z"
       inkscape:export-xdpi="96"
       inkscape:export-ydpi="96"
       inkscape:export-filename="/home/pexim/Documents/WEBSITES/essenceweb/path9113.png" />
    <text
       xml:space="preserve"
       style="font-style:normal;font-weight:normal;font-size:6.55313px;line-height:1.25;font-family:sans-serif;fill:#ffffff;fill-opacity:1;stroke:none;stroke-width:0.163829"
       x="109.85522"
       y="26.300728"
       id="text833"><tspan
         sodipodi:role="line"
         id="tspan831"
         x="109.85522"
         y="26.300728"
         style="font-style:normal;font-variant:normal;font-weight:normal;font-stretch:normal;font-family:Rosario;-inkscape-font-specification:Rosario;fill:#ffffff;stroke-width:0.163829">EssenceWEB®</tspan></text>
  </g>
</svg>
